  0
SECTION
  2
HEADER
  9
$ACADVER
  1
AC1014
  9
$HANDSEED
  5
FFFF
  9
$MEASUREMENT
 70
     1
  0
ENDSEC
  0
SECTION
  2
TABLES
  0
TABLE
  2
VPORT
  5
8
330
0
100
AcDbSymbolTable
 70
     4
  0
VPORT
  5
2E
330
8
100
AcDbSymbolTableRecord
100
AcDbViewportTableRecord
  2
*ACTIVE
 70
     0
 10
0.0
 20
0.0
 11
1.0
 21
1.0
 12
210.0
 22
148.5
 13
0.0
 23
0.0
 14
10.0
 24
10.0
 15
10.0
 25
10.0
 16
0.0
 26
0.0
 36
1.0
 17
0.0
 27
0.0
 37
0.0
 40
341.0
 41
1.24
 42
50.0
 43
0.0
 44
0.0
 50
0.0
 51
0.0
 71
     0
 72
   100
 73
     1
 74
     3
 75
     0
 76
     0
 77
     0
 78
     0
  0
ENDTAB
  0
TABLE
  2
LTYPE
  5
5
330
0
100
AcDbSymbolTable
 70
     1
  0
LTYPE
  5
14
330
5
100
AcDbSymbolTableRecord
100
AcDbLinetypeTableRecord
  2
BYBLOCK
 70
     0
  3

 72
    65
 73
     0
 40
0.0
  0
LTYPE
  5
15
330
5
100
AcDbSymbolTableRecord
100
AcDbLinetypeTableRecord
  2
BYLAYER
 70
     0
  3

 72
    65
 73
     0
 40
0.0
  0
LTYPE
  5
16
330
5
100
AcDbSymbolTableRecord
100
AcDbLinetypeTableRecord
  2
CONTINUOUS
 70
     0
  3
Solid line
 72
    65
 73
     0
 40
0.0
  0
ENDTAB
  0
TABLE
  2
LAYER
  5
2
100
AcDbSymbolTable
 70
3
  0
LAYER
  5
50
100
AcDbSymbolTableRecord
100
AcDbLayerTableRecord
  2
0
 70
0
  6
CONTINUOUS
  0
LAYER
  5
51
100
AcDbSymbolTableRecord
100
AcDbLayerTableRecord
  2
Ebene_1
 70
0
  6
CONTINUOUS
  0
LAYER
  5
52
100
AcDbSymbolTableRecord
100
AcDbLayerTableRecord
  2
newlayer
 70
0
  6
CONTINUOUS
  0
ENDTAB
  0
TABLE
  2
STYLE
  5
3
330
0
100
AcDbSymbolTable
 70
     1
  0
STYLE
  5
11
330
3
100
AcDbSymbolTableRecord
100
AcDbTextStyleTableRecord
  2
STANDARD
 70
     0
 40
0.0
 41
1.0
 50
0.0
 71
     0
 42
2.5
  3
txt
  4

  0
ENDTAB
  0
TABLE
  2
VIEW
  5
6
330
0
100
AcDbSymbolTable
 70
     0
  0
ENDTAB
  0
TABLE
  2
UCS
  5
7
330
0
100
AcDbSymbolTable
 70
     0
  0
ENDTAB
  0
TABLE
  2
APPID
  5
9
330
0
100
AcDbSymbolTable
 70
     2
  0
APPID
  5
12
330
9
100
AcDbSymbolTableRecord
100
AcDbRegAppTableRecord
  2
ACAD
 70
     0
  0
ENDTAB
  0
TABLE
  2
DIMSTYLE
  5
A
330
0
100
AcDbSymbolTable
 70
     1
  0
DIMSTYLE
105
27
330
A
100
AcDbSymbolTableRecord
100
AcDbDimStyleTableRecord
  2
ISO-25
 70
     0
  3

  4

  5

  6

  7

 40
1.0
 41
2.5
 42
0.625
 43
3.75
 44
1.25
 45
0.0
 46
0.0
 47
0.0
 48
0.0
140
2.5
141
2.5
142
0.0
143
0.03937007874016
144
1.0
145
0.0
146
1.0
147
0.625
 71
     0
 72
     0
 73
     0
 74
     0
 75
     0
 76
     0
 77
     1
 78
     8
170
     0
171
     3
172
     1
173
     0
174
     0
175
     0
176
     0
177
     0
178
     0
270
     2
271
     2
272
     2
273
     2
274
     3
340
11
275
     0
280
     0
281
     0
282
     0
283
     0
284
     8
285
     0
286
     0
287
     3
288
     0
  0
ENDTAB
  0
TABLE
  2
BLOCK_RECORD
  5
1
330
0
100
AcDbSymbolTable
 70
     1
  0
BLOCK_RECORD
  5
1F
330
1
100
AcDbSymbolTableRecord
100
AcDbBlockTableRecord
  2
*MODEL_SPACE
  0
BLOCK_RECORD
  5
1B
330
1
100
AcDbSymbolTableRecord
100
AcDbBlockTableRecord
  2
*PAPER_SPACE
  0
ENDTAB
  0
ENDSEC
  0
SECTION
  2
BLOCKS
  0
BLOCK
  5
20
330
1F
100
AcDbEntity
  8
0
100
AcDbBlockBegin
  2
*MODEL_SPACE
 70
     0
 10
0.0
 20
0.0
 30
0.0
  3
*MODEL_SPACE
  1

  0
ENDBLK
  5
21
330
1F
100
AcDbEntity
  8
0
100
AcDbBlockEnd
  0
BLOCK
  5
1C
330
1B
100
AcDbEntity
 67
     1
  8
0
100
AcDbBlockBegin
  2
*PAPER_SPACE
  1

  0
ENDBLK
  5
1D
330
1B
100
AcDbEntity
 67
     1
  8
0
100
AcDbBlockEnd
  0
ENDSEC
  0
SECTION
  2
ENTITIES
  0
LINE
  5
100
100
AcDbEntity
  8
Ebene_1
 62
7
100
AcDbLine
 10
276.200000
 20
-255.500000
 30
0.0
 11
288.833333
 21
-255.500000
 31
0.0
  0
LINE
  5
101
100
AcDbEntity
  8
Ebene_1
 62
7
100
AcDbLine
 10
288.833333
 20
-255.500000
 30
0.0
 11
288.833333
 21
-251.400000
 31
0.0
  0
LINE
  5
102
100
AcDbEntity
  8
Ebene_1
 62
7
100
AcDbLine
 10
288.833333
 20
-251.400000
 30
0.0
 11
299.033333
 21
-251.400000
 31
0.0
  0
LINE
  5
103
100
AcDbEntity
  8
Ebene_1
 62
7
100
AcDbLine
 10
299.033333
 20
-251.400000
 30
0.0
 11
299.033333
 21
-255.500000
 31
0.0
  0
LINE
  5
104
100
AcDbEntity
  8
Ebene_1
 62
7
100
AcDbLine
 10
299.033333
 20
-255.500000
 30
0.0
 11
311.566666
 21
-255.500000
 31
0.0
  0
LINE
  5
105
100
AcDbEntity
  8
Ebene_1
 62
7
100
AcDbLine
 10
311.566666
 20
-255.500000
 30
0.0
 11
311.566666
 21
-251.400000
 31
0.0
  0
LINE
  5
106
100
AcDbEntity
  8
Ebene_1
 62
7
100
AcDbLine
 10
311.566666
 20
-251.400000
 30
0.0
 11
321.766666
 21
-251.400000
 31
0.0
  0
LINE
  5
107
100
AcDbEntity
  8
Ebene_1
 62
7
100
AcDbLine
 10
321.766666
 20
-251.400000
 30
0.0
 11
321.766666
 21
-255.500000
 31
0.0
  0
LINE
  5
108
100
AcDbEntity
  8
Ebene_1
 62
7
100
AcDbLine
 10
321.766666
 20
-255.500000
 30
0.0
 11
334.400000
 21
-255.500000
 31
0.0
  0
LINE
  5
109
100
AcDbEntity
  8
Ebene_1
 62
7
100
AcDbLine
 10
334.400000
 20
-255.500000
 30
0.0
 11
334.400000
 21
-262.900000
 31
0.0
  0
LINE
  5
10a
100
AcDbEntity
  8
Ebene_1
 62
7
100
AcDbLine
 10
334.400000
 20
-262.900000
 30
0.0
 11
330.300000
 21
-262.900000
 31
0.0
  0
LINE
  5
10b
100
AcDbEntity
  8
Ebene_1
 62
7
100
AcDbLine
 10
330.300000
 20
-262.900000
 30
0.0
 11
330.300000
 21
-272.700000
 31
0.0
  0
LINE
  5
10c
100
AcDbEntity
  8
Ebene_1
 62
7
100
AcDbLine
 10
330.300000
 20
-272.700000
 30
0.0
 11
334.400000
 21
-272.700000
 31
0.0
  0
LINE
  5
10d
100
AcDbEntity
  8
Ebene_1
 62
7
100
AcDbLine
 10
334.400000
 20
-272.700000
 30
0.0
 11
334.400000
 21
-284.300000
 31
0.0
  0
LINE
  5
10e
100
AcDbEntity
  8
Ebene_1
 62
7
100
AcDbLine
 10
334.400000
 20
-284.300000
 30
0.0
 11
330.300000
 21
-284.300000
 31
0.0
  0
LINE
  5
10f
100
AcDbEntity
  8
Ebene_1
 62
7
100
AcDbLine
 10
330.300000
 20
-284.300000
 30
0.0
 11
330.300000
 21
-294.100000
 31
0.0
  0
LINE
  5
110
100
AcDbEntity
  8
Ebene_1
 62
7
100
AcDbLine
 10
330.300000
 20
-294.100000
 30
0.0
 11
334.400000
 21
-294.100000
 31
0.0
  0
LINE
  5
111
100
AcDbEntity
  8
Ebene_1
 62
7
100
AcDbLine
 10
334.400000
 20
-294.100000
 30
0.0
 11
334.400000
 21
-305.700000
 31
0.0
  0
LINE
  5
112
100
AcDbEntity
  8
Ebene_1
 62
7
100
AcDbLine
 10
334.400000
 20
-305.700000
 30
0.0
 11
330.300000
 21
-305.700000
 31
0.0
  0
LINE
  5
113
100
AcDbEntity
  8
Ebene_1
 62
7
100
AcDbLine
 10
330.300000
 20
-305.700000
 30
0.0
 11
330.300000
 21
-315.500000
 31
0.0
  0
LINE
  5
114
100
AcDbEntity
  8
Ebene_1
 62
7
100
AcDbLine
 10
330.300000
 20
-315.500000
 30
0.0
 11
334.400000
 21
-315.500000
 31
0.0
  0
LINE
  5
115
100
AcDbEntity
  8
Ebene_1
 62
7
100
AcDbLine
 10
334.400000
 20
-315.500000
 30
0.0
 11
334.400000
 21
-327.100000
 31
0.0
  0
LINE
  5
116
100
AcDbEntity
  8
Ebene_1
 62
7
100
AcDbLine
 10
334.400000
 20
-327.100000
 30
0.0
 11
330.300000
 21
-327.100000
 31
0.0
  0
LINE
  5
117
100
AcDbEntity
  8
Ebene_1
 62
7
100
AcDbLine
 10
330.300000
 20
-327.100000
 30
0.0
 11
330.300000
 21
-336.900000
 31
0.0
  0
LINE
  5
118
100
AcDbEntity
  8
Ebene_1
 62
7
100
AcDbLine
 10
330.300000
 20
-336.900000
 30
0.0
 11
334.400000
 21
-336.900000
 31
0.0
  0
LINE
  5
119
100
AcDbEntity
  8
Ebene_1
 62
7
100
AcDbLine
 10
334.400000
 20
-336.900000
 30
0.0
 11
334.400000
 21
-348.500000
 31
0.0
  0
LINE
  5
11a
100
AcDbEntity
  8
Ebene_1
 62
7
100
AcDbLine
 10
334.400000
 20
-348.500000
 30
0.0
 11
330.300000
 21
-348.500000
 31
0.0
  0
LINE
  5
11b
100
AcDbEntity
  8
Ebene_1
 62
7
100
AcDbLine
 10
330.300000
 20
-348.500000
 30
0.0
 11
330.300000
 21
-358.300000
 31
0.0
  0
LINE
  5
11c
100
AcDbEntity
  8
Ebene_1
 62
7
100
AcDbLine
 10
330.300000
 20
-358.300000
 30
0.0
 11
334.400000
 21
-358.300000
 31
0.0
  0
LINE
  5
11d
100
AcDbEntity
  8
Ebene_1
 62
7
100
AcDbLine
 10
334.400000
 20
-358.300000
 30
0.0
 11
334.400000
 21
-369.900000
 31
0.0
  0
LINE
  5
11e
100
AcDbEntity
  8
Ebene_1
 62
7
100
AcDbLine
 10
334.400000
 20
-369.900000
 30
0.0
 11
330.300000
 21
-369.900000
 31
0.0
  0
LINE
  5
11f
100
AcDbEntity
  8
Ebene_1
 62
7
100
AcDbLine
 10
330.300000
 20
-369.900000
 30
0.0
 11
330.300000
 21
-379.700000
 31
0.0
  0
LINE
  5
120
100
AcDbEntity
  8
Ebene_1
 62
7
100
AcDbLine
 10
330.300000
 20
-379.700000
 30
0.0
 11
334.400000
 21
-379.700000
 31
0.0
  0
LINE
  5
121
100
AcDbEntity
  8
Ebene_1
 62
7
100
AcDbLine
 10
334.400000
 20
-379.700000
 30
0.0
 11
334.400000
 21
-391.300000
 31
0.0
  0
LINE
  5
122
100
AcDbEntity
  8
Ebene_1
 62
7
100
AcDbLine
 10
334.400000
 20
-391.300000
 30
0.0
 11
330.300000
 21
-391.300000
 31
0.0
  0
LINE
  5
123
100
AcDbEntity
  8
Ebene_1
 62
7
100
AcDbLine
 10
330.300000
 20
-391.300000
 30
0.0
 11
330.300000
 21
-401.100000
 31
0.0
  0
LINE
  5
124
100
AcDbEntity
  8
Ebene_1
 62
7
100
AcDbLine
 10
330.300000
 20
-401.100000
 30
0.0
 11
334.400000
 21
-401.100000
 31
0.0
  0
LINE
  5
125
100
AcDbEntity
  8
Ebene_1
 62
7
100
AcDbLine
 10
334.400000
 20
-401.100000
 30
0.0
 11
334.400000
 21
-412.700000
 31
0.0
  0
LINE
  5
126
100
AcDbEntity
  8
Ebene_1
 62
7
100
AcDbLine
 10
334.400000
 20
-412.700000
 30
0.0
 11
330.300000
 21
-412.700000
 31
0.0
  0
LINE
  5
127
100
AcDbEntity
  8
Ebene_1
 62
7
100
AcDbLine
 10
330.300000
 20
-412.700000
 30
0.0
 11
330.300000
 21
-422.500000
 31
0.0
  0
LINE
  5
128
100
AcDbEntity
  8
Ebene_1
 62
7
100
AcDbLine
 10
330.300000
 20
-422.500000
 30
0.0
 11
334.400000
 21
-422.500000
 31
0.0
  0
LINE
  5
129
100
AcDbEntity
  8
Ebene_1
 62
7
100
AcDbLine
 10
334.400000
 20
-422.500000
 30
0.0
 11
334.400000
 21
-434.099999
 31
0.0
  0
LINE
  5
12a
100
AcDbEntity
  8
Ebene_1
 62
7
100
AcDbLine
 10
334.400000
 20
-434.099999
 30
0.0
 11
330.300000
 21
-434.099999
 31
0.0
  0
LINE
  5
12b
100
AcDbEntity
  8
Ebene_1
 62
7
100
AcDbLine
 10
330.300000
 20
-434.099999
 30
0.0
 11
330.300000
 21
-443.899999
 31
0.0
  0
LINE
  5
12c
100
AcDbEntity
  8
Ebene_1
 62
7
100
AcDbLine
 10
330.300000
 20
-443.899999
 30
0.0
 11
334.400000
 21
-443.899999
 31
0.0
  0
LINE
  5
12d
100
AcDbEntity
  8
Ebene_1
 62
7
100
AcDbLine
 10
334.400000
 20
-443.899999
 30
0.0
 11
334.400000
 21
-455.499999
 31
0.0
  0
LINE
  5
12e
100
AcDbEntity
  8
Ebene_1
 62
7
100
AcDbLine
 10
334.400000
 20
-455.499999
 30
0.0
 11
330.300000
 21
-455.499999
 31
0.0
  0
LINE
  5
12f
100
AcDbEntity
  8
Ebene_1
 62
7
100
AcDbLine
 10
330.300000
 20
-455.499999
 30
0.0
 11
330.300000
 21
-465.299999
 31
0.0
  0
LINE
  5
130
100
AcDbEntity
  8
Ebene_1
 62
7
100
AcDbLine
 10
330.300000
 20
-465.299999
 30
0.0
 11
334.400000
 21
-465.299999
 31
0.0
  0
LINE
  5
131
100
AcDbEntity
  8
Ebene_1
 62
7
100
AcDbLine
 10
334.400000
 20
-465.299999
 30
0.0
 11
334.400000
 21
-476.899999
 31
0.0
  0
LINE
  5
132
100
AcDbEntity
  8
Ebene_1
 62
7
100
AcDbLine
 10
334.400000
 20
-476.899999
 30
0.0
 11
330.300000
 21
-476.899999
 31
0.0
  0
LINE
  5
133
100
AcDbEntity
  8
Ebene_1
 62
7
100
AcDbLine
 10
330.300000
 20
-476.899999
 30
0.0
 11
330.300000
 21
-486.699999
 31
0.0
  0
LINE
  5
134
100
AcDbEntity
  8
Ebene_1
 62
7
100
AcDbLine
 10
330.300000
 20
-486.699999
 30
0.0
 11
334.400000
 21
-486.699999
 31
0.0
  0
LINE
  5
135
100
AcDbEntity
  8
Ebene_1
 62
7
100
AcDbLine
 10
334.400000
 20
-486.699999
 30
0.0
 11
334.400000
 21
-498.299999
 31
0.0
  0
LINE
  5
136
100
AcDbEntity
  8
Ebene_1
 62
7
100
AcDbLine
 10
334.400000
 20
-498.299999
 30
0.0
 11
330.300000
 21
-498.299999
 31
0.0
  0
LINE
  5
137
100
AcDbEntity
  8
Ebene_1
 62
7
100
AcDbLine
 10
330.300000
 20
-498.299999
 30
0.0
 11
330.300000
 21
-508.099999
 31
0.0
  0
LINE
  5
138
100
AcDbEntity
  8
Ebene_1
 62
7
100
AcDbLine
 10
330.300000
 20
-508.099999
 30
0.0
 11
334.400000
 21
-508.099999
 31
0.0
  0
LINE
  5
139
100
AcDbEntity
  8
Ebene_1
 62
7
100
AcDbLine
 10
334.400000
 20
-508.099999
 30
0.0
 11
334.400000
 21
-515.500000
 31
0.0
  0
LINE
  5
13a
100
AcDbEntity
  8
Ebene_1
 62
7
100
AcDbLine
 10
334.400000
 20
-515.500000
 30
0.0
 11
321.766666
 21
-515.500000
 31
0.0
  0
LINE
  5
13b
100
AcDbEntity
  8
Ebene_1
 62
7
100
AcDbLine
 10
321.766666
 20
-515.500000
 30
0.0
 11
321.766666
 21
-519.599999
 31
0.0
  0
LINE
  5
13c
100
AcDbEntity
  8
Ebene_1
 62
7
100
AcDbLine
 10
321.766666
 20
-519.599999
 30
0.0
 11
311.566666
 21
-519.599999
 31
0.0
  0
LINE
  5
13d
100
AcDbEntity
  8
Ebene_1
 62
7
100
AcDbLine
 10
311.566666
 20
-519.599999
 30
0.0
 11
311.566666
 21
-515.500000
 31
0.0
  0
LINE
  5
13e
100
AcDbEntity
  8
Ebene_1
 62
7
100
AcDbLine
 10
311.566666
 20
-515.500000
 30
0.0
 11
299.033333
 21
-515.500000
 31
0.0
  0
LINE
  5
13f
100
AcDbEntity
  8
Ebene_1
 62
7
100
AcDbLine
 10
299.033333
 20
-515.500000
 30
0.0
 11
299.033333
 21
-519.599999
 31
0.0
  0
LINE
  5
140
100
AcDbEntity
  8
Ebene_1
 62
7
100
AcDbLine
 10
299.033333
 20
-519.599999
 30
0.0
 11
288.833333
 21
-519.599999
 31
0.0
  0
LINE
  5
141
100
AcDbEntity
  8
Ebene_1
 62
7
100
AcDbLine
 10
288.833333
 20
-519.599999
 30
0.0
 11
288.833333
 21
-515.500000
 31
0.0
  0
LINE
  5
142
100
AcDbEntity
  8
Ebene_1
 62
7
100
AcDbLine
 10
288.833333
 20
-515.500000
 30
0.0
 11
276.200000
 21
-515.500000
 31
0.0
  0
LINE
  5
143
100
AcDbEntity
  8
Ebene_1
 62
7
100
AcDbLine
 10
276.200000
 20
-515.500000
 30
0.0
 11
276.200000
 21
-508.099999
 31
0.0
  0
LINE
  5
144
100
AcDbEntity
  8
Ebene_1
 62
7
100
AcDbLine
 10
276.200000
 20
-508.099999
 30
0.0
 11
280.300000
 21
-508.099999
 31
0.0
  0
LINE
  5
145
100
AcDbEntity
  8
Ebene_1
 62
7
100
AcDbLine
 10
280.300000
 20
-508.099999
 30
0.0
 11
280.300000
 21
-498.299999
 31
0.0
  0
LINE
  5
146
100
AcDbEntity
  8
Ebene_1
 62
7
100
AcDbLine
 10
280.300000
 20
-498.299999
 30
0.0
 11
276.200000
 21
-498.299999
 31
0.0
  0
LINE
  5
147
100
AcDbEntity
  8
Ebene_1
 62
7
100
AcDbLine
 10
276.200000
 20
-498.299999
 30
0.0
 11
276.200000
 21
-486.699999
 31
0.0
  0
LINE
  5
148
100
AcDbEntity
  8
Ebene_1
 62
7
100
AcDbLine
 10
276.200000
 20
-486.699999
 30
0.0
 11
280.300000
 21
-486.699999
 31
0.0
  0
LINE
  5
149
100
AcDbEntity
  8
Ebene_1
 62
7
100
AcDbLine
 10
280.300000
 20
-486.699999
 30
0.0
 11
280.300000
 21
-476.899999
 31
0.0
  0
LINE
  5
14a
100
AcDbEntity
  8
Ebene_1
 62
7
100
AcDbLine
 10
280.300000
 20
-476.899999
 30
0.0
 11
276.200000
 21
-476.899999
 31
0.0
  0
LINE
  5
14b
100
AcDbEntity
  8
Ebene_1
 62
7
100
AcDbLine
 10
276.200000
 20
-476.899999
 30
0.0
 11
276.200000
 21
-465.299999
 31
0.0
  0
LINE
  5
14c
100
AcDbEntity
  8
Ebene_1
 62
7
100
AcDbLine
 10
276.200000
 20
-465.299999
 30
0.0
 11
280.300000
 21
-465.299999
 31
0.0
  0
LINE
  5
14d
100
AcDbEntity
  8
Ebene_1
 62
7
100
AcDbLine
 10
280.300000
 20
-465.299999
 30
0.0
 11
280.300000
 21
-455.499999
 31
0.0
  0
LINE
  5
14e
100
AcDbEntity
  8
Ebene_1
 62
7
100
AcDbLine
 10
280.300000
 20
-455.499999
 30
0.0
 11
276.200000
 21
-455.499999
 31
0.0
  0
LINE
  5
14f
100
AcDbEntity
  8
Ebene_1
 62
7
100
AcDbLine
 10
276.200000
 20
-455.499999
 30
0.0
 11
276.200000
 21
-443.899999
 31
0.0
  0
LINE
  5
150
100
AcDbEntity
  8
Ebene_1
 62
7
100
AcDbLine
 10
276.200000
 20
-443.899999
 30
0.0
 11
280.300000
 21
-443.899999
 31
0.0
  0
LINE
  5
151
100
AcDbEntity
  8
Ebene_1
 62
7
100
AcDbLine
 10
280.300000
 20
-443.899999
 30
0.0
 11
280.300000
 21
-434.099999
 31
0.0
  0
LINE
  5
152
100
AcDbEntity
  8
Ebene_1
 62
7
100
AcDbLine
 10
280.300000
 20
-434.099999
 30
0.0
 11
276.200000
 21
-434.099999
 31
0.0
  0
LINE
  5
153
100
AcDbEntity
  8
Ebene_1
 62
7
100
AcDbLine
 10
276.200000
 20
-434.099999
 30
0.0
 11
276.200000
 21
-422.500000
 31
0.0
  0
LINE
  5
154
100
AcDbEntity
  8
Ebene_1
 62
7
100
AcDbLine
 10
276.200000
 20
-422.500000
 30
0.0
 11
280.300000
 21
-422.500000
 31
0.0
  0
LINE
  5
155
100
AcDbEntity
  8
Ebene_1
 62
7
100
AcDbLine
 10
280.300000
 20
-422.500000
 30
0.0
 11
280.300000
 21
-412.700000
 31
0.0
  0
LINE
  5
156
100
AcDbEntity
  8
Ebene_1
 62
7
100
AcDbLine
 10
280.300000
 20
-412.700000
 30
0.0
 11
276.200000
 21
-412.700000
 31
0.0
  0
LINE
  5
157
100
AcDbEntity
  8
Ebene_1
 62
7
100
AcDbLine
 10
276.200000
 20
-412.700000
 30
0.0
 11
276.200000
 21
-401.100000
 31
0.0
  0
LINE
  5
158
100
AcDbEntity
  8
Ebene_1
 62
7
100
AcDbLine
 10
276.200000
 20
-401.100000
 30
0.0
 11
280.300000
 21
-401.100000
 31
0.0
  0
LINE
  5
159
100
AcDbEntity
  8
Ebene_1
 62
7
100
AcDbLine
 10
280.300000
 20
-401.100000
 30
0.0
 11
280.300000
 21
-391.300000
 31
0.0
  0
LINE
  5
15a
100
AcDbEntity
  8
Ebene_1
 62
7
100
AcDbLine
 10
280.300000
 20
-391.300000
 30
0.0
 11
276.200000
 21
-391.300000
 31
0.0
  0
LINE
  5
15b
100
AcDbEntity
  8
Ebene_1
 62
7
100
AcDbLine
 10
276.200000
 20
-391.300000
 30
0.0
 11
276.200000
 21
-379.700000
 31
0.0
  0
LINE
  5
15c
100
AcDbEntity
  8
Ebene_1
 62
7
100
AcDbLine
 10
276.200000
 20
-379.700000
 30
0.0
 11
280.300000
 21
-379.700000
 31
0.0
  0
LINE
  5
15d
100
AcDbEntity
  8
Ebene_1
 62
7
100
AcDbLine
 10
280.300000
 20
-379.700000
 30
0.0
 11
280.300000
 21
-369.900000
 31
0.0
  0
LINE
  5
15e
100
AcDbEntity
  8
Ebene_1
 62
7
100
AcDbLine
 10
280.300000
 20
-369.900000
 30
0.0
 11
276.200000
 21
-369.900000
 31
0.0
  0
LINE
  5
15f
100
AcDbEntity
  8
Ebene_1
 62
7
100
AcDbLine
 10
276.200000
 20
-369.900000
 30
0.0
 11
276.200000
 21
-358.300000
 31
0.0
  0
LINE
  5
160
100
AcDbEntity
  8
Ebene_1
 62
7
100
AcDbLine
 10
276.200000
 20
-358.300000
 30
0.0
 11
280.300000
 21
-358.300000
 31
0.0
  0
LINE
  5
161
100
AcDbEntity
  8
Ebene_1
 62
7
100
AcDbLine
 10
280.300000
 20
-358.300000
 30
0.0
 11
280.300000
 21
-348.500000
 31
0.0
  0
LINE
  5
162
100
AcDbEntity
  8
Ebene_1
 62
7
100
AcDbLine
 10
280.300000
 20
-348.500000
 30
0.0
 11
276.200000
 21
-348.500000
 31
0.0
  0
LINE
  5
163
100
AcDbEntity
  8
Ebene_1
 62
7
100
AcDbLine
 10
276.200000
 20
-348.500000
 30
0.0
 11
276.200000
 21
-336.900000
 31
0.0
  0
LINE
  5
164
100
AcDbEntity
  8
Ebene_1
 62
7
100
AcDbLine
 10
276.200000
 20
-336.900000
 30
0.0
 11
280.300000
 21
-336.900000
 31
0.0
  0
LINE
  5
165
100
AcDbEntity
  8
Ebene_1
 62
7
100
AcDbLine
 10
280.300000
 20
-336.900000
 30
0.0
 11
280.300000
 21
-327.100000
 31
0.0
  0
LINE
  5
166
100
AcDbEntity
  8
Ebene_1
 62
7
100
AcDbLine
 10
280.300000
 20
-327.100000
 30
0.0
 11
276.200000
 21
-327.100000
 31
0.0
  0
LINE
  5
167
100
AcDbEntity
  8
Ebene_1
 62
7
100
AcDbLine
 10
276.200000
 20
-327.100000
 30
0.0
 11
276.200000
 21
-315.500000
 31
0.0
  0
LINE
  5
168
100
AcDbEntity
  8
Ebene_1
 62
7
100
AcDbLine
 10
276.200000
 20
-315.500000
 30
0.0
 11
280.300000
 21
-315.500000
 31
0.0
  0
LINE
  5
169
100
AcDbEntity
  8
Ebene_1
 62
7
100
AcDbLine
 10
280.300000
 20
-315.500000
 30
0.0
 11
280.300000
 21
-305.700000
 31
0.0
  0
LINE
  5
16a
100
AcDbEntity
  8
Ebene_1
 62
7
100
AcDbLine
 10
280.300000
 20
-305.700000
 30
0.0
 11
276.200000
 21
-305.700000
 31
0.0
  0
LINE
  5
16b
100
AcDbEntity
  8
Ebene_1
 62
7
100
AcDbLine
 10
276.200000
 20
-305.700000
 30
0.0
 11
276.200000
 21
-294.100000
 31
0.0
  0
LINE
  5
16c
100
AcDbEntity
  8
Ebene_1
 62
7
100
AcDbLine
 10
276.200000
 20
-294.100000
 30
0.0
 11
280.300000
 21
-294.100000
 31
0.0
  0
LINE
  5
16d
100
AcDbEntity
  8
Ebene_1
 62
7
100
AcDbLine
 10
280.300000
 20
-294.100000
 30
0.0
 11
280.300000
 21
-284.300000
 31
0.0
  0
LINE
  5
16e
100
AcDbEntity
  8
Ebene_1
 62
7
100
AcDbLine
 10
280.300000
 20
-284.300000
 30
0.0
 11
276.200000
 21
-284.300000
 31
0.0
  0
LINE
  5
16f
100
AcDbEntity
  8
Ebene_1
 62
7
100
AcDbLine
 10
276.200000
 20
-284.300000
 30
0.0
 11
276.200000
 21
-272.700000
 31
0.0
  0
LINE
  5
170
100
AcDbEntity
  8
Ebene_1
 62
7
100
AcDbLine
 10
276.200000
 20
-272.700000
 30
0.0
 11
280.300000
 21
-272.700000
 31
0.0
  0
LINE
  5
171
100
AcDbEntity
  8
Ebene_1
 62
7
100
AcDbLine
 10
280.300000
 20
-272.700000
 30
0.0
 11
280.300000
 21
-262.900000
 31
0.0
  0
LINE
  5
172
100
AcDbEntity
  8
Ebene_1
 62
7
100
AcDbLine
 10
280.300000
 20
-262.900000
 30
0.0
 11
276.200000
 21
-262.900000
 31
0.0
  0
LINE
  5
173
100
AcDbEntity
  8
Ebene_1
 62
7
100
AcDbLine
 10
276.200000
 20
-262.900000
 30
0.0
 11
276.200000
 21
-255.500000
 31
0.0
  0
LINE
  5
174
100
AcDbEntity
  8
Ebene_1
 62
7
100
AcDbLine
 10
276.200000
 20
20.800000
 30
0.0
 11
289.033333
 21
20.800000
 31
0.0
  0
LINE
  5
175
100
AcDbEntity
  8
Ebene_1
 62
7
100
AcDbLine
 10
289.033333
 20
20.800000
 30
0.0
 11
289.033333
 21
16.700000
 31
0.0
  0
LINE
  5
176
100
AcDbEntity
  8
Ebene_1
 62
7
100
AcDbLine
 10
289.033333
 20
16.700000
 30
0.0
 11
298.833333
 21
16.700000
 31
0.0
  0
LINE
  5
177
100
AcDbEntity
  8
Ebene_1
 62
7
100
AcDbLine
 10
298.833333
 20
16.700000
 30
0.0
 11
298.833333
 21
20.800000
 31
0.0
  0
LINE
  5
178
100
AcDbEntity
  8
Ebene_1
 62
7
100
AcDbLine
 10
298.833333
 20
20.800000
 30
0.0
 11
311.766666
 21
20.800000
 31
0.0
  0
LINE
  5
179
100
AcDbEntity
  8
Ebene_1
 62
7
100
AcDbLine
 10
311.766666
 20
20.800000
 30
0.0
 11
311.766666
 21
16.700000
 31
0.0
  0
LINE
  5
17a
100
AcDbEntity
  8
Ebene_1
 62
7
100
AcDbLine
 10
311.766666
 20
16.700000
 30
0.0
 11
321.566666
 21
16.700000
 31
0.0
  0
LINE
  5
17b
100
AcDbEntity
  8
Ebene_1
 62
7
100
AcDbLine
 10
321.566666
 20
16.700000
 30
0.0
 11
321.566666
 21
20.800000
 31
0.0
  0
LINE
  5
17c
100
AcDbEntity
  8
Ebene_1
 62
7
100
AcDbLine
 10
321.566666
 20
20.800000
 30
0.0
 11
334.400000
 21
20.800000
 31
0.0
  0
LINE
  5
17d
100
AcDbEntity
  8
Ebene_1
 62
7
100
AcDbLine
 10
334.400000
 20
20.800000
 30
0.0
 11
334.400000
 21
9.300000
 31
0.0
  0
LINE
  5
17e
100
AcDbEntity
  8
Ebene_1
 62
7
100
AcDbLine
 10
334.400000
 20
9.300000
 30
0.0
 11
330.300000
 21
9.300000
 31
0.0
  0
LINE
  5
17f
100
AcDbEntity
  8
Ebene_1
 62
7
100
AcDbLine
 10
330.300000
 20
9.300000
 30
0.0
 11
330.300000
 21
-0.500000
 31
0.0
  0
LINE
  5
180
100
AcDbEntity
  8
Ebene_1
 62
7
100
AcDbLine
 10
330.300000
 20
-0.500000
 30
0.0
 11
334.400000
 21
-0.500000
 31
0.0
  0
LINE
  5
181
100
AcDbEntity
  8
Ebene_1
 62
7
100
AcDbLine
 10
334.400000
 20
-0.500000
 30
0.0
 11
334.400000
 21
-12.100000
 31
0.0
  0
LINE
  5
182
100
AcDbEntity
  8
Ebene_1
 62
7
100
AcDbLine
 10
334.400000
 20
-12.100000
 30
0.0
 11
330.300000
 21
-12.100000
 31
0.0
  0
LINE
  5
183
100
AcDbEntity
  8
Ebene_1
 62
7
100
AcDbLine
 10
330.300000
 20
-12.100000
 30
0.0
 11
330.300000
 21
-21.900000
 31
0.0
  0
LINE
  5
184
100
AcDbEntity
  8
Ebene_1
 62
7
100
AcDbLine
 10
330.300000
 20
-21.900000
 30
0.0
 11
334.400000
 21
-21.900000
 31
0.0
  0
LINE
  5
185
100
AcDbEntity
  8
Ebene_1
 62
7
100
AcDbLine
 10
334.400000
 20
-21.900000
 30
0.0
 11
334.400000
 21
-33.500000
 31
0.0
  0
LINE
  5
186
100
AcDbEntity
  8
Ebene_1
 62
7
100
AcDbLine
 10
334.400000
 20
-33.500000
 30
0.0
 11
330.300000
 21
-33.500000
 31
0.0
  0
LINE
  5
187
100
AcDbEntity
  8
Ebene_1
 62
7
100
AcDbLine
 10
330.300000
 20
-33.500000
 30
0.0
 11
330.300000
 21
-43.300000
 31
0.0
  0
LINE
  5
188
100
AcDbEntity
  8
Ebene_1
 62
7
100
AcDbLine
 10
330.300000
 20
-43.300000
 30
0.0
 11
334.400000
 21
-43.300000
 31
0.0
  0
LINE
  5
189
100
AcDbEntity
  8
Ebene_1
 62
7
100
AcDbLine
 10
334.400000
 20
-43.300000
 30
0.0
 11
334.400000
 21
-54.900000
 31
0.0
  0
LINE
  5
18a
100
AcDbEntity
  8
Ebene_1
 62
7
100
AcDbLine
 10
334.400000
 20
-54.900000
 30
0.0
 11
330.300000
 21
-54.900000
 31
0.0
  0
LINE
  5
18b
100
AcDbEntity
  8
Ebene_1
 62
7
100
AcDbLine
 10
330.300000
 20
-54.900000
 30
0.0
 11
330.300000
 21
-64.700000
 31
0.0
  0
LINE
  5
18c
100
AcDbEntity
  8
Ebene_1
 62
7
100
AcDbLine
 10
330.300000
 20
-64.700000
 30
0.0
 11
334.400000
 21
-64.700000
 31
0.0
  0
LINE
  5
18d
100
AcDbEntity
  8
Ebene_1
 62
7
100
AcDbLine
 10
334.400000
 20
-64.700000
 30
0.0
 11
334.400000
 21
-76.300000
 31
0.0
  0
LINE
  5
18e
100
AcDbEntity
  8
Ebene_1
 62
7
100
AcDbLine
 10
334.400000
 20
-76.300000
 30
0.0
 11
330.300000
 21
-76.300000
 31
0.0
  0
LINE
  5
18f
100
AcDbEntity
  8
Ebene_1
 62
7
100
AcDbLine
 10
330.300000
 20
-76.300000
 30
0.0
 11
330.300000
 21
-86.100000
 31
0.0
  0
LINE
  5
190
100
AcDbEntity
  8
Ebene_1
 62
7
100
AcDbLine
 10
330.300000
 20
-86.100000
 30
0.0
 11
334.400000
 21
-86.100000
 31
0.0
  0
LINE
  5
191
100
AcDbEntity
  8
Ebene_1
 62
7
100
AcDbLine
 10
334.400000
 20
-86.100000
 30
0.0
 11
334.400000
 21
-97.700000
 31
0.0
  0
LINE
  5
192
100
AcDbEntity
  8
Ebene_1
 62
7
100
AcDbLine
 10
334.400000
 20
-97.700000
 30
0.0
 11
330.300000
 21
-97.700000
 31
0.0
  0
LINE
  5
193
100
AcDbEntity
  8
Ebene_1
 62
7
100
AcDbLine
 10
330.300000
 20
-97.700000
 30
0.0
 11
330.300000
 21
-107.500000
 31
0.0
  0
LINE
  5
194
100
AcDbEntity
  8
Ebene_1
 62
7
100
AcDbLine
 10
330.300000
 20
-107.500000
 30
0.0
 11
334.400000
 21
-107.500000
 31
0.0
  0
LINE
  5
195
100
AcDbEntity
  8
Ebene_1
 62
7
100
AcDbLine
 10
334.400000
 20
-107.500000
 30
0.0
 11
334.400000
 21
-119.100000
 31
0.0
  0
LINE
  5
196
100
AcDbEntity
  8
Ebene_1
 62
7
100
AcDbLine
 10
334.400000
 20
-119.100000
 30
0.0
 11
330.300000
 21
-119.100000
 31
0.0
  0
LINE
  5
197
100
AcDbEntity
  8
Ebene_1
 62
7
100
AcDbLine
 10
330.300000
 20
-119.100000
 30
0.0
 11
330.300000
 21
-128.900000
 31
0.0
  0
LINE
  5
198
100
AcDbEntity
  8
Ebene_1
 62
7
100
AcDbLine
 10
330.300000
 20
-128.900000
 30
0.0
 11
334.400000
 21
-128.900000
 31
0.0
  0
LINE
  5
199
100
AcDbEntity
  8
Ebene_1
 62
7
100
AcDbLine
 10
334.400000
 20
-128.900000
 30
0.0
 11
334.400000
 21
-140.500000
 31
0.0
  0
LINE
  5
19a
100
AcDbEntity
  8
Ebene_1
 62
7
100
AcDbLine
 10
334.400000
 20
-140.500000
 30
0.0
 11
330.300000
 21
-140.500000
 31
0.0
  0
LINE
  5
19b
100
AcDbEntity
  8
Ebene_1
 62
7
100
AcDbLine
 10
330.300000
 20
-140.500000
 30
0.0
 11
330.300000
 21
-150.300000
 31
0.0
  0
LINE
  5
19c
100
AcDbEntity
  8
Ebene_1
 62
7
100
AcDbLine
 10
330.300000
 20
-150.300000
 30
0.0
 11
334.400000
 21
-150.300000
 31
0.0
  0
LINE
  5
19d
100
AcDbEntity
  8
Ebene_1
 62
7
100
AcDbLine
 10
334.400000
 20
-150.300000
 30
0.0
 11
334.400000
 21
-161.900000
 31
0.0
  0
LINE
  5
19e
100
AcDbEntity
  8
Ebene_1
 62
7
100
AcDbLine
 10
334.400000
 20
-161.900000
 30
0.0
 11
330.300000
 21
-161.900000
 31
0.0
  0
LINE
  5
19f
100
AcDbEntity
  8
Ebene_1
 62
7
100
AcDbLine
 10
330.300000
 20
-161.900000
 30
0.0
 11
330.300000
 21
-171.700000
 31
0.0
  0
LINE
  5
1a0
100
AcDbEntity
  8
Ebene_1
 62
7
100
AcDbLine
 10
330.300000
 20
-171.700000
 30
0.0
 11
334.400000
 21
-171.700000
 31
0.0
  0
LINE
  5
1a1
100
AcDbEntity
  8
Ebene_1
 62
7
100
AcDbLine
 10
334.400000
 20
-171.700000
 30
0.0
 11
334.400000
 21
-183.300000
 31
0.0
  0
LINE
  5
1a2
100
AcDbEntity
  8
Ebene_1
 62
7
100
AcDbLine
 10
334.400000
 20
-183.300000
 30
0.0
 11
330.300000
 21
-183.300000
 31
0.0
  0
LINE
  5
1a3
100
AcDbEntity
  8
Ebene_1
 62
7
100
AcDbLine
 10
330.300000
 20
-183.300000
 30
0.0
 11
330.300000
 21
-193.100000
 31
0.0
  0
LINE
  5
1a4
100
AcDbEntity
  8
Ebene_1
 62
7
100
AcDbLine
 10
330.300000
 20
-193.100000
 30
0.0
 11
334.400000
 21
-193.100000
 31
0.0
  0
LINE
  5
1a5
100
AcDbEntity
  8
Ebene_1
 62
7
100
AcDbLine
 10
334.400000
 20
-193.100000
 30
0.0
 11
334.400000
 21
-204.700000
 31
0.0
  0
LINE
  5
1a6
100
AcDbEntity
  8
Ebene_1
 62
7
100
AcDbLine
 10
334.400000
 20
-204.700000
 30
0.0
 11
330.300000
 21
-204.700000
 31
0.0
  0
LINE
  5
1a7
100
AcDbEntity
  8
Ebene_1
 62
7
100
AcDbLine
 10
330.300000
 20
-204.700000
 30
0.0
 11
330.300000
 21
-214.500000
 31
0.0
  0
LINE
  5
1a8
100
AcDbEntity
  8
Ebene_1
 62
7
100
AcDbLine
 10
330.300000
 20
-214.500000
 30
0.0
 11
334.400000
 21
-214.500000
 31
0.0
  0
LINE
  5
1a9
100
AcDbEntity
  8
Ebene_1
 62
7
100
AcDbLine
 10
334.400000
 20
-214.500000
 30
0.0
 11
334.400000
 21
-226.100000
 31
0.0
  0
LINE
  5
1aa
100
AcDbEntity
  8
Ebene_1
 62
7
100
AcDbLine
 10
334.400000
 20
-226.100000
 30
0.0
 11
330.300000
 21
-226.100000
 31
0.0
  0
LINE
  5
1ab
100
AcDbEntity
  8
Ebene_1
 62
7
100
AcDbLine
 10
330.300000
 20
-226.100000
 30
0.0
 11
330.300000
 21
-235.900000
 31
0.0
  0
LINE
  5
1ac
100
AcDbEntity
  8
Ebene_1
 62
7
100
AcDbLine
 10
330.300000
 20
-235.900000
 30
0.0
 11
334.400000
 21
-235.900000
 31
0.0
  0
LINE
  5
1ad
100
AcDbEntity
  8
Ebene_1
 62
7
100
AcDbLine
 10
334.400000
 20
-235.900000
 30
0.0
 11
334.400000
 21
-247.400000
 31
0.0
  0
LINE
  5
1ae
100
AcDbEntity
  8
Ebene_1
 62
7
100
AcDbLine
 10
334.400000
 20
-247.400000
 30
0.0
 11
321.566666
 21
-247.400000
 31
0.0
  0
LINE
  5
1af
100
AcDbEntity
  8
Ebene_1
 62
7
100
AcDbLine
 10
321.566666
 20
-247.400000
 30
0.0
 11
321.566666
 21
-243.300000
 31
0.0
  0
LINE
  5
1b0
100
AcDbEntity
  8
Ebene_1
 62
7
100
AcDbLine
 10
321.566666
 20
-243.300000
 30
0.0
 11
311.766666
 21
-243.300000
 31
0.0
  0
LINE
  5
1b1
100
AcDbEntity
  8
Ebene_1
 62
7
100
AcDbLine
 10
311.766666
 20
-243.300000
 30
0.0
 11
311.766666
 21
-247.400000
 31
0.0
  0
LINE
  5
1b2
100
AcDbEntity
  8
Ebene_1
 62
7
100
AcDbLine
 10
311.766666
 20
-247.400000
 30
0.0
 11
298.833333
 21
-247.400000
 31
0.0
  0
LINE
  5
1b3
100
AcDbEntity
  8
Ebene_1
 62
7
100
AcDbLine
 10
298.833333
 20
-247.400000
 30
0.0
 11
298.833333
 21
-243.300000
 31
0.0
  0
LINE
  5
1b4
100
AcDbEntity
  8
Ebene_1
 62
7
100
AcDbLine
 10
298.833333
 20
-243.300000
 30
0.0
 11
289.033333
 21
-243.300000
 31
0.0
  0
LINE
  5
1b5
100
AcDbEntity
  8
Ebene_1
 62
7
100
AcDbLine
 10
289.033333
 20
-243.300000
 30
0.0
 11
289.033333
 21
-247.400000
 31
0.0
  0
LINE
  5
1b6
100
AcDbEntity
  8
Ebene_1
 62
7
100
AcDbLine
 10
289.033333
 20
-247.400000
 30
0.0
 11
276.200000
 21
-247.400000
 31
0.0
  0
LINE
  5
1b7
100
AcDbEntity
  8
Ebene_1
 62
7
100
AcDbLine
 10
276.200000
 20
-247.400000
 30
0.0
 11
276.200000
 21
-235.900000
 31
0.0
  0
LINE
  5
1b8
100
AcDbEntity
  8
Ebene_1
 62
7
100
AcDbLine
 10
276.200000
 20
-235.900000
 30
0.0
 11
280.300000
 21
-235.900000
 31
0.0
  0
LINE
  5
1b9
100
AcDbEntity
  8
Ebene_1
 62
7
100
AcDbLine
 10
280.300000
 20
-235.900000
 30
0.0
 11
280.300000
 21
-226.100000
 31
0.0
  0
LINE
  5
1ba
100
AcDbEntity
  8
Ebene_1
 62
7
100
AcDbLine
 10
280.300000
 20
-226.100000
 30
0.0
 11
276.200000
 21
-226.100000
 31
0.0
  0
LINE
  5
1bb
100
AcDbEntity
  8
Ebene_1
 62
7
100
AcDbLine
 10
276.200000
 20
-226.100000
 30
0.0
 11
276.200000
 21
-214.500000
 31
0.0
  0
LINE
  5
1bc
100
AcDbEntity
  8
Ebene_1
 62
7
100
AcDbLine
 10
276.200000
 20
-214.500000
 30
0.0
 11
280.300000
 21
-214.500000
 31
0.0
  0
LINE
  5
1bd
100
AcDbEntity
  8
Ebene_1
 62
7
100
AcDbLine
 10
280.300000
 20
-214.500000
 30
0.0
 11
280.300000
 21
-204.700000
 31
0.0
  0
LINE
  5
1be
100
AcDbEntity
  8
Ebene_1
 62
7
100
AcDbLine
 10
280.300000
 20
-204.700000
 30
0.0
 11
276.200000
 21
-204.700000
 31
0.0
  0
LINE
  5
1bf
100
AcDbEntity
  8
Ebene_1
 62
7
100
AcDbLine
 10
276.200000
 20
-204.700000
 30
0.0
 11
276.200000
 21
-193.100000
 31
0.0
  0
LINE
  5
1c0
100
AcDbEntity
  8
Ebene_1
 62
7
100
AcDbLine
 10
276.200000
 20
-193.100000
 30
0.0
 11
280.300000
 21
-193.100000
 31
0.0
  0
LINE
  5
1c1
100
AcDbEntity
  8
Ebene_1
 62
7
100
AcDbLine
 10
280.300000
 20
-193.100000
 30
0.0
 11
280.300000
 21
-183.300000
 31
0.0
  0
LINE
  5
1c2
100
AcDbEntity
  8
Ebene_1
 62
7
100
AcDbLine
 10
280.300000
 20
-183.300000
 30
0.0
 11
276.200000
 21
-183.300000
 31
0.0
  0
LINE
  5
1c3
100
AcDbEntity
  8
Ebene_1
 62
7
100
AcDbLine
 10
276.200000
 20
-183.300000
 30
0.0
 11
276.200000
 21
-171.700000
 31
0.0
  0
LINE
  5
1c4
100
AcDbEntity
  8
Ebene_1
 62
7
100
AcDbLine
 10
276.200000
 20
-171.700000
 30
0.0
 11
280.300000
 21
-171.700000
 31
0.0
  0
LINE
  5
1c5
100
AcDbEntity
  8
Ebene_1
 62
7
100
AcDbLine
 10
280.300000
 20
-171.700000
 30
0.0
 11
280.300000
 21
-161.900000
 31
0.0
  0
LINE
  5
1c6
100
AcDbEntity
  8
Ebene_1
 62
7
100
AcDbLine
 10
280.300000
 20
-161.900000
 30
0.0
 11
276.200000
 21
-161.900000
 31
0.0
  0
LINE
  5
1c7
100
AcDbEntity
  8
Ebene_1
 62
7
100
AcDbLine
 10
276.200000
 20
-161.900000
 30
0.0
 11
276.200000
 21
-150.300000
 31
0.0
  0
LINE
  5
1c8
100
AcDbEntity
  8
Ebene_1
 62
7
100
AcDbLine
 10
276.200000
 20
-150.300000
 30
0.0
 11
280.300000
 21
-150.300000
 31
0.0
  0
LINE
  5
1c9
100
AcDbEntity
  8
Ebene_1
 62
7
100
AcDbLine
 10
280.300000
 20
-150.300000
 30
0.0
 11
280.300000
 21
-140.500000
 31
0.0
  0
LINE
  5
1ca
100
AcDbEntity
  8
Ebene_1
 62
7
100
AcDbLine
 10
280.300000
 20
-140.500000
 30
0.0
 11
276.200000
 21
-140.500000
 31
0.0
  0
LINE
  5
1cb
100
AcDbEntity
  8
Ebene_1
 62
7
100
AcDbLine
 10
276.200000
 20
-140.500000
 30
0.0
 11
276.200000
 21
-128.900000
 31
0.0
  0
LINE
  5
1cc
100
AcDbEntity
  8
Ebene_1
 62
7
100
AcDbLine
 10
276.200000
 20
-128.900000
 30
0.0
 11
280.300000
 21
-128.900000
 31
0.0
  0
LINE
  5
1cd
100
AcDbEntity
  8
Ebene_1
 62
7
100
AcDbLine
 10
280.300000
 20
-128.900000
 30
0.0
 11
280.300000
 21
-119.100000
 31
0.0
  0
LINE
  5
1ce
100
AcDbEntity
  8
Ebene_1
 62
7
100
AcDbLine
 10
280.300000
 20
-119.100000
 30
0.0
 11
276.200000
 21
-119.100000
 31
0.0
  0
LINE
  5
1cf
100
AcDbEntity
  8
Ebene_1
 62
7
100
AcDbLine
 10
276.200000
 20
-119.100000
 30
0.0
 11
276.200000
 21
-107.500000
 31
0.0
  0
LINE
  5
1d0
100
AcDbEntity
  8
Ebene_1
 62
7
100
AcDbLine
 10
276.200000
 20
-107.500000
 30
0.0
 11
280.300000
 21
-107.500000
 31
0.0
  0
LINE
  5
1d1
100
AcDbEntity
  8
Ebene_1
 62
7
100
AcDbLine
 10
280.300000
 20
-107.500000
 30
0.0
 11
280.300000
 21
-97.700000
 31
0.0
  0
LINE
  5
1d2
100
AcDbEntity
  8
Ebene_1
 62
7
100
AcDbLine
 10
280.300000
 20
-97.700000
 30
0.0
 11
276.200000
 21
-97.700000
 31
0.0
  0
LINE
  5
1d3
100
AcDbEntity
  8
Ebene_1
 62
7
100
AcDbLine
 10
276.200000
 20
-97.700000
 30
0.0
 11
276.200000
 21
-86.100000
 31
0.0
  0
LINE
  5
1d4
100
AcDbEntity
  8
Ebene_1
 62
7
100
AcDbLine
 10
276.200000
 20
-86.100000
 30
0.0
 11
280.300000
 21
-86.100000
 31
0.0
  0
LINE
  5
1d5
100
AcDbEntity
  8
Ebene_1
 62
7
100
AcDbLine
 10
280.300000
 20
-86.100000
 30
0.0
 11
280.300000
 21
-76.300000
 31
0.0
  0
LINE
  5
1d6
100
AcDbEntity
  8
Ebene_1
 62
7
100
AcDbLine
 10
280.300000
 20
-76.300000
 30
0.0
 11
276.200000
 21
-76.300000
 31
0.0
  0
LINE
  5
1d7
100
AcDbEntity
  8
Ebene_1
 62
7
100
AcDbLine
 10
276.200000
 20
-76.300000
 30
0.0
 11
276.200000
 21
-64.700000
 31
0.0
  0
LINE
  5
1d8
100
AcDbEntity
  8
Ebene_1
 62
7
100
AcDbLine
 10
276.200000
 20
-64.700000
 30
0.0
 11
280.300000
 21
-64.700000
 31
0.0
  0
LINE
  5
1d9
100
AcDbEntity
  8
Ebene_1
 62
7
100
AcDbLine
 10
280.300000
 20
-64.700000
 30
0.0
 11
280.300000
 21
-54.900000
 31
0.0
  0
LINE
  5
1da
100
AcDbEntity
  8
Ebene_1
 62
7
100
AcDbLine
 10
280.300000
 20
-54.900000
 30
0.0
 11
276.200000
 21
-54.900000
 31
0.0
  0
LINE
  5
1db
100
AcDbEntity
  8
Ebene_1
 62
7
100
AcDbLine
 10
276.200000
 20
-54.900000
 30
0.0
 11
276.200000
 21
-43.300000
 31
0.0
  0
LINE
  5
1dc
100
AcDbEntity
  8
Ebene_1
 62
7
100
AcDbLine
 10
276.200000
 20
-43.300000
 30
0.0
 11
280.300000
 21
-43.300000
 31
0.0
  0
LINE
  5
1dd
100
AcDbEntity
  8
Ebene_1
 62
7
100
AcDbLine
 10
280.300000
 20
-43.300000
 30
0.0
 11
280.300000
 21
-33.500000
 31
0.0
  0
LINE
  5
1de
100
AcDbEntity
  8
Ebene_1
 62
7
100
AcDbLine
 10
280.300000
 20
-33.500000
 30
0.0
 11
276.200000
 21
-33.500000
 31
0.0
  0
LINE
  5
1df
100
AcDbEntity
  8
Ebene_1
 62
7
100
AcDbLine
 10
276.200000
 20
-33.500000
 30
0.0
 11
276.200000
 21
-21.900000
 31
0.0
  0
LINE
  5
1e0
100
AcDbEntity
  8
Ebene_1
 62
7
100
AcDbLine
 10
276.200000
 20
-21.900000
 30
0.0
 11
280.300000
 21
-21.900000
 31
0.0
  0
LINE
  5
1e1
100
AcDbEntity
  8
Ebene_1
 62
7
100
AcDbLine
 10
280.300000
 20
-21.900000
 30
0.0
 11
280.300000
 21
-12.100000
 31
0.0
  0
LINE
  5
1e2
100
AcDbEntity
  8
Ebene_1
 62
7
100
AcDbLine
 10
280.300000
 20
-12.100000
 30
0.0
 11
276.200000
 21
-12.100000
 31
0.0
  0
LINE
  5
1e3
100
AcDbEntity
  8
Ebene_1
 62
7
100
AcDbLine
 10
276.200000
 20
-12.100000
 30
0.0
 11
276.200000
 21
-0.500000
 31
0.0
  0
LINE
  5
1e4
100
AcDbEntity
  8
Ebene_1
 62
7
100
AcDbLine
 10
276.200000
 20
-0.500000
 30
0.0
 11
280.300000
 21
-0.500000
 31
0.0
  0
LINE
  5
1e5
100
AcDbEntity
  8
Ebene_1
 62
7
100
AcDbLine
 10
280.300000
 20
-0.500000
 30
0.0
 11
280.300000
 21
9.300000
 31
0.0
  0
LINE
  5
1e6
100
AcDbEntity
  8
Ebene_1
 62
7
100
AcDbLine
 10
280.300000
 20
9.300000
 30
0.0
 11
276.200000
 21
9.300000
 31
0.0
  0
LINE
  5
1e7
100
AcDbEntity
  8
Ebene_1
 62
7
100
AcDbLine
 10
276.200000
 20
9.300000
 30
0.0
 11
276.200000
 21
20.800000
 31
0.0
  0
LINE
  5
1e8
100
AcDbEntity
  8
Ebene_1
 62
7
100
AcDbLine
 10
342.500000
 20
16.700000
 30
0.0
 11
349.700000
 21
16.700000
 31
0.0
  0
LINE
  5
1e9
100
AcDbEntity
  8
Ebene_1
 62
7
100
AcDbLine
 10
349.700000
 20
16.700000
 30
0.0
 11
349.700000
 21
20.800000
 31
0.0
  0
LINE
  5
1ea
100
AcDbEntity
  8
Ebene_1
 62
7
100
AcDbLine
 10
349.700000
 20
20.800000
 30
0.0
 11
359.900000
 21
20.800000
 31
0.0
  0
LINE
  5
1eb
100
AcDbEntity
  8
Ebene_1
 62
7
100
AcDbLine
 10
359.900000
 20
20.800000
 30
0.0
 11
359.900000
 21
16.700000
 31
0.0
  0
LINE
  5
1ec
100
AcDbEntity
  8
Ebene_1
 62
7
100
AcDbLine
 10
359.900000
 20
16.700000
 30
0.0
 11
371.100000
 21
16.700000
 31
0.0
  0
LINE
  5
1ed
100
AcDbEntity
  8
Ebene_1
 62
7
100
AcDbLine
 10
371.100000
 20
16.700000
 30
0.0
 11
371.100000
 21
20.800000
 31
0.0
  0
LINE
  5
1ee
100
AcDbEntity
  8
Ebene_1
 62
7
100
AcDbLine
 10
371.100000
 20
20.800000
 30
0.0
 11
381.300000
 21
20.800000
 31
0.0
  0
LINE
  5
1ef
100
AcDbEntity
  8
Ebene_1
 62
7
100
AcDbLine
 10
381.300000
 20
20.800000
 30
0.0
 11
381.300000
 21
16.700000
 31
0.0
  0
LINE
  5
1f0
100
AcDbEntity
  8
Ebene_1
 62
7
100
AcDbLine
 10
381.300000
 20
16.700000
 30
0.0
 11
392.500000
 21
16.700000
 31
0.0
  0
LINE
  5
1f1
100
AcDbEntity
  8
Ebene_1
 62
7
100
AcDbLine
 10
392.500000
 20
16.700000
 30
0.0
 11
392.500000
 21
20.800000
 31
0.0
  0
LINE
  5
1f2
100
AcDbEntity
  8
Ebene_1
 62
7
100
AcDbLine
 10
392.500000
 20
20.800000
 30
0.0
 11
402.700000
 21
20.800000
 31
0.0
  0
LINE
  5
1f3
100
AcDbEntity
  8
Ebene_1
 62
7
100
AcDbLine
 10
402.700000
 20
20.800000
 30
0.0
 11
402.700000
 21
16.700000
 31
0.0
  0
LINE
  5
1f4
100
AcDbEntity
  8
Ebene_1
 62
7
100
AcDbLine
 10
402.700000
 20
16.700000
 30
0.0
 11
413.900000
 21
16.700000
 31
0.0
  0
LINE
  5
1f5
100
AcDbEntity
  8
Ebene_1
 62
7
100
AcDbLine
 10
413.900000
 20
16.700000
 30
0.0
 11
413.900000
 21
20.800000
 31
0.0
  0
LINE
  5
1f6
100
AcDbEntity
  8
Ebene_1
 62
7
100
AcDbLine
 10
413.900000
 20
20.800000
 30
0.0
 11
424.100000
 21
20.800000
 31
0.0
  0
LINE
  5
1f7
100
AcDbEntity
  8
Ebene_1
 62
7
100
AcDbLine
 10
424.100000
 20
20.800000
 30
0.0
 11
424.100000
 21
16.700000
 31
0.0
  0
LINE
  5
1f8
100
AcDbEntity
  8
Ebene_1
 62
7
100
AcDbLine
 10
424.100000
 20
16.700000
 30
0.0
 11
435.300000
 21
16.700000
 31
0.0
  0
LINE
  5
1f9
100
AcDbEntity
  8
Ebene_1
 62
7
100
AcDbLine
 10
435.300000
 20
16.700000
 30
0.0
 11
435.300000
 21
20.800000
 31
0.0
  0
LINE
  5
1fa
100
AcDbEntity
  8
Ebene_1
 62
7
100
AcDbLine
 10
435.300000
 20
20.800000
 30
0.0
 11
445.500000
 21
20.800000
 31
0.0
  0
LINE
  5
1fb
100
AcDbEntity
  8
Ebene_1
 62
7
100
AcDbLine
 10
445.500000
 20
20.800000
 30
0.0
 11
445.500000
 21
16.700000
 31
0.0
  0
LINE
  5
1fc
100
AcDbEntity
  8
Ebene_1
 62
7
100
AcDbLine
 10
445.500000
 20
16.700000
 30
0.0
 11
456.700000
 21
16.700000
 31
0.0
  0
LINE
  5
1fd
100
AcDbEntity
  8
Ebene_1
 62
7
100
AcDbLine
 10
456.700000
 20
16.700000
 30
0.0
 11
456.700000
 21
20.800000
 31
0.0
  0
LINE
  5
1fe
100
AcDbEntity
  8
Ebene_1
 62
7
100
AcDbLine
 10
456.700000
 20
20.800000
 30
0.0
 11
466.900000
 21
20.800000
 31
0.0
  0
LINE
  5
1ff
100
AcDbEntity
  8
Ebene_1
 62
7
100
AcDbLine
 10
466.900000
 20
20.800000
 30
0.0
 11
466.900000
 21
16.700000
 31
0.0
  0
LINE
  5
200
100
AcDbEntity
  8
Ebene_1
 62
7
100
AcDbLine
 10
466.900000
 20
16.700000
 30
0.0
 11
478.100000
 21
16.700000
 31
0.0
  0
LINE
  5
201
100
AcDbEntity
  8
Ebene_1
 62
7
100
AcDbLine
 10
478.100000
 20
16.700000
 30
0.0
 11
478.100000
 21
20.800000
 31
0.0
  0
LINE
  5
202
100
AcDbEntity
  8
Ebene_1
 62
7
100
AcDbLine
 10
478.100000
 20
20.800000
 30
0.0
 11
488.300000
 21
20.800000
 31
0.0
  0
LINE
  5
203
100
AcDbEntity
  8
Ebene_1
 62
7
100
AcDbLine
 10
488.300000
 20
20.800000
 30
0.0
 11
488.300000
 21
16.700000
 31
0.0
  0
LINE
  5
204
100
AcDbEntity
  8
Ebene_1
 62
7
100
AcDbLine
 10
488.300000
 20
16.700000
 30
0.0
 11
499.500000
 21
16.700000
 31
0.0
  0
LINE
  5
205
100
AcDbEntity
  8
Ebene_1
 62
7
100
AcDbLine
 10
499.500000
 20
16.700000
 30
0.0
 11
499.500000
 21
20.800000
 31
0.0
  0
LINE
  5
206
100
AcDbEntity
  8
Ebene_1
 62
7
100
AcDbLine
 10
499.500000
 20
20.800000
 30
0.0
 11
509.700000
 21
20.800000
 31
0.0
  0
LINE
  5
207
100
AcDbEntity
  8
Ebene_1
 62
7
100
AcDbLine
 10
509.700000
 20
20.800000
 30
0.0
 11
509.700000
 21
16.700000
 31
0.0
  0
LINE
  5
208
100
AcDbEntity
  8
Ebene_1
 62
7
100
AcDbLine
 10
509.700000
 20
16.700000
 30
0.0
 11
520.899999
 21
16.700000
 31
0.0
  0
LINE
  5
209
100
AcDbEntity
  8
Ebene_1
 62
7
100
AcDbLine
 10
520.899999
 20
16.700000
 30
0.0
 11
520.899999
 21
20.800000
 31
0.0
  0
LINE
  5
20a
100
AcDbEntity
  8
Ebene_1
 62
7
100
AcDbLine
 10
520.899999
 20
20.800000
 30
0.0
 11
531.099999
 21
20.800000
 31
0.0
  0
LINE
  5
20b
100
AcDbEntity
  8
Ebene_1
 62
7
100
AcDbLine
 10
531.099999
 20
20.800000
 30
0.0
 11
531.099999
 21
16.700000
 31
0.0
  0
LINE
  5
20c
100
AcDbEntity
  8
Ebene_1
 62
7
100
AcDbLine
 10
531.099999
 20
16.700000
 30
0.0
 11
542.299999
 21
16.700000
 31
0.0
  0
LINE
  5
20d
100
AcDbEntity
  8
Ebene_1
 62
7
100
AcDbLine
 10
542.299999
 20
16.700000
 30
0.0
 11
542.299999
 21
20.800000
 31
0.0
  0
LINE
  5
20e
100
AcDbEntity
  8
Ebene_1
 62
7
100
AcDbLine
 10
542.299999
 20
20.800000
 30
0.0
 11
552.499999
 21
20.800000
 31
0.0
  0
LINE
  5
20f
100
AcDbEntity
  8
Ebene_1
 62
7
100
AcDbLine
 10
552.499999
 20
20.800000
 30
0.0
 11
552.499999
 21
16.700000
 31
0.0
  0
LINE
  5
210
100
AcDbEntity
  8
Ebene_1
 62
7
100
AcDbLine
 10
552.499999
 20
16.700000
 30
0.0
 11
563.699999
 21
16.700000
 31
0.0
  0
LINE
  5
211
100
AcDbEntity
  8
Ebene_1
 62
7
100
AcDbLine
 10
563.699999
 20
16.700000
 30
0.0
 11
563.699999
 21
20.800000
 31
0.0
  0
LINE
  5
212
100
AcDbEntity
  8
Ebene_1
 62
7
100
AcDbLine
 10
563.699999
 20
20.800000
 30
0.0
 11
573.899999
 21
20.800000
 31
0.0
  0
LINE
  5
213
100
AcDbEntity
  8
Ebene_1
 62
7
100
AcDbLine
 10
573.899999
 20
20.800000
 30
0.0
 11
573.899999
 21
16.700000
 31
0.0
  0
LINE
  5
214
100
AcDbEntity
  8
Ebene_1
 62
7
100
AcDbLine
 10
573.899999
 20
16.700000
 30
0.0
 11
585.099999
 21
16.700000
 31
0.0
  0
LINE
  5
215
100
AcDbEntity
  8
Ebene_1
 62
7
100
AcDbLine
 10
585.099999
 20
16.700000
 30
0.0
 11
585.099999
 21
20.800000
 31
0.0
  0
LINE
  5
216
100
AcDbEntity
  8
Ebene_1
 62
7
100
AcDbLine
 10
585.099999
 20
20.800000
 30
0.0
 11
595.299999
 21
20.800000
 31
0.0
  0
LINE
  5
217
100
AcDbEntity
  8
Ebene_1
 62
7
100
AcDbLine
 10
595.299999
 20
20.800000
 30
0.0
 11
595.299999
 21
16.700000
 31
0.0
  0
LINE
  5
218
100
AcDbEntity
  8
Ebene_1
 62
7
100
AcDbLine
 10
595.299999
 20
16.700000
 30
0.0
 11
602.500000
 21
16.700000
 31
0.0
  0
LINE
  5
219
100
AcDbEntity
  8
Ebene_1
 62
7
100
AcDbLine
 10
602.500000
 20
16.700000
 30
0.0
 11
602.500000
 21
9.500000
 31
0.0
  0
LINE
  5
21a
100
AcDbEntity
  8
Ebene_1
 62
7
100
AcDbLine
 10
602.500000
 20
9.500000
 30
0.0
 11
606.599999
 21
9.500000
 31
0.0
  0
LINE
  5
21b
100
AcDbEntity
  8
Ebene_1
 62
7
100
AcDbLine
 10
606.599999
 20
9.500000
 30
0.0
 11
606.599999
 21
-0.700000
 31
0.0
  0
LINE
  5
21c
100
AcDbEntity
  8
Ebene_1
 62
7
100
AcDbLine
 10
606.599999
 20
-0.700000
 30
0.0
 11
602.500000
 21
-0.700000
 31
0.0
  0
LINE
  5
21d
100
AcDbEntity
  8
Ebene_1
 62
7
100
AcDbLine
 10
602.500000
 20
-0.700000
 30
0.0
 11
602.500000
 21
-11.900000
 31
0.0
  0
LINE
  5
21e
100
AcDbEntity
  8
Ebene_1
 62
7
100
AcDbLine
 10
602.500000
 20
-11.900000
 30
0.0
 11
606.599999
 21
-11.900000
 31
0.0
  0
LINE
  5
21f
100
AcDbEntity
  8
Ebene_1
 62
7
100
AcDbLine
 10
606.599999
 20
-11.900000
 30
0.0
 11
606.599999
 21
-22.100000
 31
0.0
  0
LINE
  5
220
100
AcDbEntity
  8
Ebene_1
 62
7
100
AcDbLine
 10
606.599999
 20
-22.100000
 30
0.0
 11
602.500000
 21
-22.100000
 31
0.0
  0
LINE
  5
221
100
AcDbEntity
  8
Ebene_1
 62
7
100
AcDbLine
 10
602.500000
 20
-22.100000
 30
0.0
 11
602.500000
 21
-33.300000
 31
0.0
  0
LINE
  5
222
100
AcDbEntity
  8
Ebene_1
 62
7
100
AcDbLine
 10
602.500000
 20
-33.300000
 30
0.0
 11
606.599999
 21
-33.300000
 31
0.0
  0
LINE
  5
223
100
AcDbEntity
  8
Ebene_1
 62
7
100
AcDbLine
 10
606.599999
 20
-33.300000
 30
0.0
 11
606.599999
 21
-43.500000
 31
0.0
  0
LINE
  5
224
100
AcDbEntity
  8
Ebene_1
 62
7
100
AcDbLine
 10
606.599999
 20
-43.500000
 30
0.0
 11
602.500000
 21
-43.500000
 31
0.0
  0
LINE
  5
225
100
AcDbEntity
  8
Ebene_1
 62
7
100
AcDbLine
 10
602.500000
 20
-43.500000
 30
0.0
 11
602.500000
 21
-54.700000
 31
0.0
  0
LINE
  5
226
100
AcDbEntity
  8
Ebene_1
 62
7
100
AcDbLine
 10
602.500000
 20
-54.700000
 30
0.0
 11
606.599999
 21
-54.700000
 31
0.0
  0
LINE
  5
227
100
AcDbEntity
  8
Ebene_1
 62
7
100
AcDbLine
 10
606.599999
 20
-54.700000
 30
0.0
 11
606.599999
 21
-64.900000
 31
0.0
  0
LINE
  5
228
100
AcDbEntity
  8
Ebene_1
 62
7
100
AcDbLine
 10
606.599999
 20
-64.900000
 30
0.0
 11
602.500000
 21
-64.900000
 31
0.0
  0
LINE
  5
229
100
AcDbEntity
  8
Ebene_1
 62
7
100
AcDbLine
 10
602.500000
 20
-64.900000
 30
0.0
 11
602.500000
 21
-76.100000
 31
0.0
  0
LINE
  5
22a
100
AcDbEntity
  8
Ebene_1
 62
7
100
AcDbLine
 10
602.500000
 20
-76.100000
 30
0.0
 11
606.599999
 21
-76.100000
 31
0.0
  0
LINE
  5
22b
100
AcDbEntity
  8
Ebene_1
 62
7
100
AcDbLine
 10
606.599999
 20
-76.100000
 30
0.0
 11
606.599999
 21
-86.300000
 31
0.0
  0
LINE
  5
22c
100
AcDbEntity
  8
Ebene_1
 62
7
100
AcDbLine
 10
606.599999
 20
-86.300000
 30
0.0
 11
602.500000
 21
-86.300000
 31
0.0
  0
LINE
  5
22d
100
AcDbEntity
  8
Ebene_1
 62
7
100
AcDbLine
 10
602.500000
 20
-86.300000
 30
0.0
 11
602.500000
 21
-97.500000
 31
0.0
  0
LINE
  5
22e
100
AcDbEntity
  8
Ebene_1
 62
7
100
AcDbLine
 10
602.500000
 20
-97.500000
 30
0.0
 11
606.599999
 21
-97.500000
 31
0.0
  0
LINE
  5
22f
100
AcDbEntity
  8
Ebene_1
 62
7
100
AcDbLine
 10
606.599999
 20
-97.500000
 30
0.0
 11
606.599999
 21
-107.700000
 31
0.0
  0
LINE
  5
230
100
AcDbEntity
  8
Ebene_1
 62
7
100
AcDbLine
 10
606.599999
 20
-107.700000
 30
0.0
 11
602.500000
 21
-107.700000
 31
0.0
  0
LINE
  5
231
100
AcDbEntity
  8
Ebene_1
 62
7
100
AcDbLine
 10
602.500000
 20
-107.700000
 30
0.0
 11
602.500000
 21
-118.900000
 31
0.0
  0
LINE
  5
232
100
AcDbEntity
  8
Ebene_1
 62
7
100
AcDbLine
 10
602.500000
 20
-118.900000
 30
0.0
 11
606.599999
 21
-118.900000
 31
0.0
  0
LINE
  5
233
100
AcDbEntity
  8
Ebene_1
 62
7
100
AcDbLine
 10
606.599999
 20
-118.900000
 30
0.0
 11
606.599999
 21
-129.100000
 31
0.0
  0
LINE
  5
234
100
AcDbEntity
  8
Ebene_1
 62
7
100
AcDbLine
 10
606.599999
 20
-129.100000
 30
0.0
 11
602.500000
 21
-129.100000
 31
0.0
  0
LINE
  5
235
100
AcDbEntity
  8
Ebene_1
 62
7
100
AcDbLine
 10
602.500000
 20
-129.100000
 30
0.0
 11
602.500000
 21
-140.300000
 31
0.0
  0
LINE
  5
236
100
AcDbEntity
  8
Ebene_1
 62
7
100
AcDbLine
 10
602.500000
 20
-140.300000
 30
0.0
 11
606.599999
 21
-140.300000
 31
0.0
  0
LINE
  5
237
100
AcDbEntity
  8
Ebene_1
 62
7
100
AcDbLine
 10
606.599999
 20
-140.300000
 30
0.0
 11
606.599999
 21
-150.500000
 31
0.0
  0
LINE
  5
238
100
AcDbEntity
  8
Ebene_1
 62
7
100
AcDbLine
 10
606.599999
 20
-150.500000
 30
0.0
 11
602.500000
 21
-150.500000
 31
0.0
  0
LINE
  5
239
100
AcDbEntity
  8
Ebene_1
 62
7
100
AcDbLine
 10
602.500000
 20
-150.500000
 30
0.0
 11
602.500000
 21
-161.700000
 31
0.0
  0
LINE
  5
23a
100
AcDbEntity
  8
Ebene_1
 62
7
100
AcDbLine
 10
602.500000
 20
-161.700000
 30
0.0
 11
606.599999
 21
-161.700000
 31
0.0
  0
LINE
  5
23b
100
AcDbEntity
  8
Ebene_1
 62
7
100
AcDbLine
 10
606.599999
 20
-161.700000
 30
0.0
 11
606.599999
 21
-171.900000
 31
0.0
  0
LINE
  5
23c
100
AcDbEntity
  8
Ebene_1
 62
7
100
AcDbLine
 10
606.599999
 20
-171.900000
 30
0.0
 11
602.500000
 21
-171.900000
 31
0.0
  0
LINE
  5
23d
100
AcDbEntity
  8
Ebene_1
 62
7
100
AcDbLine
 10
602.500000
 20
-171.900000
 30
0.0
 11
602.500000
 21
-183.100000
 31
0.0
  0
LINE
  5
23e
100
AcDbEntity
  8
Ebene_1
 62
7
100
AcDbLine
 10
602.500000
 20
-183.100000
 30
0.0
 11
606.599999
 21
-183.100000
 31
0.0
  0
LINE
  5
23f
100
AcDbEntity
  8
Ebene_1
 62
7
100
AcDbLine
 10
606.599999
 20
-183.100000
 30
0.0
 11
606.599999
 21
-193.300000
 31
0.0
  0
LINE
  5
240
100
AcDbEntity
  8
Ebene_1
 62
7
100
AcDbLine
 10
606.599999
 20
-193.300000
 30
0.0
 11
602.500000
 21
-193.300000
 31
0.0
  0
LINE
  5
241
100
AcDbEntity
  8
Ebene_1
 62
7
100
AcDbLine
 10
602.500000
 20
-193.300000
 30
0.0
 11
602.500000
 21
-204.500000
 31
0.0
  0
LINE
  5
242
100
AcDbEntity
  8
Ebene_1
 62
7
100
AcDbLine
 10
602.500000
 20
-204.500000
 30
0.0
 11
606.599999
 21
-204.500000
 31
0.0
  0
LINE
  5
243
100
AcDbEntity
  8
Ebene_1
 62
7
100
AcDbLine
 10
606.599999
 20
-204.500000
 30
0.0
 11
606.599999
 21
-214.700000
 31
0.0
  0
LINE
  5
244
100
AcDbEntity
  8
Ebene_1
 62
7
100
AcDbLine
 10
606.599999
 20
-214.700000
 30
0.0
 11
602.500000
 21
-214.700000
 31
0.0
  0
LINE
  5
245
100
AcDbEntity
  8
Ebene_1
 62
7
100
AcDbLine
 10
602.500000
 20
-214.700000
 30
0.0
 11
602.500000
 21
-225.900000
 31
0.0
  0
LINE
  5
246
100
AcDbEntity
  8
Ebene_1
 62
7
100
AcDbLine
 10
602.500000
 20
-225.900000
 30
0.0
 11
606.599999
 21
-225.900000
 31
0.0
  0
LINE
  5
247
100
AcDbEntity
  8
Ebene_1
 62
7
100
AcDbLine
 10
606.599999
 20
-225.900000
 30
0.0
 11
606.599999
 21
-236.100000
 31
0.0
  0
LINE
  5
248
100
AcDbEntity
  8
Ebene_1
 62
7
100
AcDbLine
 10
606.599999
 20
-236.100000
 30
0.0
 11
602.500000
 21
-236.100000
 31
0.0
  0
LINE
  5
249
100
AcDbEntity
  8
Ebene_1
 62
7
100
AcDbLine
 10
602.500000
 20
-236.100000
 30
0.0
 11
602.500000
 21
-243.300000
 31
0.0
  0
LINE
  5
24a
100
AcDbEntity
  8
Ebene_1
 62
7
100
AcDbLine
 10
602.500000
 20
-243.300000
 30
0.0
 11
595.299999
 21
-243.300000
 31
0.0
  0
LINE
  5
24b
100
AcDbEntity
  8
Ebene_1
 62
7
100
AcDbLine
 10
595.299999
 20
-243.300000
 30
0.0
 11
595.299999
 21
-247.400000
 31
0.0
  0
LINE
  5
24c
100
AcDbEntity
  8
Ebene_1
 62
7
100
AcDbLine
 10
595.299999
 20
-247.400000
 30
0.0
 11
585.099999
 21
-247.400000
 31
0.0
  0
LINE
  5
24d
100
AcDbEntity
  8
Ebene_1
 62
7
100
AcDbLine
 10
585.099999
 20
-247.400000
 30
0.0
 11
585.099999
 21
-243.300000
 31
0.0
  0
LINE
  5
24e
100
AcDbEntity
  8
Ebene_1
 62
7
100
AcDbLine
 10
585.099999
 20
-243.300000
 30
0.0
 11
573.899999
 21
-243.300000
 31
0.0
  0
LINE
  5
24f
100
AcDbEntity
  8
Ebene_1
 62
7
100
AcDbLine
 10
573.899999
 20
-243.300000
 30
0.0
 11
573.899999
 21
-247.400000
 31
0.0
  0
LINE
  5
250
100
AcDbEntity
  8
Ebene_1
 62
7
100
AcDbLine
 10
573.899999
 20
-247.400000
 30
0.0
 11
563.699999
 21
-247.400000
 31
0.0
  0
LINE
  5
251
100
AcDbEntity
  8
Ebene_1
 62
7
100
AcDbLine
 10
563.699999
 20
-247.400000
 30
0.0
 11
563.699999
 21
-243.300000
 31
0.0
  0
LINE
  5
252
100
AcDbEntity
  8
Ebene_1
 62
7
100
AcDbLine
 10
563.699999
 20
-243.300000
 30
0.0
 11
552.499999
 21
-243.300000
 31
0.0
  0
LINE
  5
253
100
AcDbEntity
  8
Ebene_1
 62
7
100
AcDbLine
 10
552.499999
 20
-243.300000
 30
0.0
 11
552.499999
 21
-247.400000
 31
0.0
  0
LINE
  5
254
100
AcDbEntity
  8
Ebene_1
 62
7
100
AcDbLine
 10
552.499999
 20
-247.400000
 30
0.0
 11
542.299999
 21
-247.400000
 31
0.0
  0
LINE
  5
255
100
AcDbEntity
  8
Ebene_1
 62
7
100
AcDbLine
 10
542.299999
 20
-247.400000
 30
0.0
 11
542.299999
 21
-243.300000
 31
0.0
  0
LINE
  5
256
100
AcDbEntity
  8
Ebene_1
 62
7
100
AcDbLine
 10
542.299999
 20
-243.300000
 30
0.0
 11
531.099999
 21
-243.300000
 31
0.0
  0
LINE
  5
257
100
AcDbEntity
  8
Ebene_1
 62
7
100
AcDbLine
 10
531.099999
 20
-243.300000
 30
0.0
 11
531.099999
 21
-247.400000
 31
0.0
  0
LINE
  5
258
100
AcDbEntity
  8
Ebene_1
 62
7
100
AcDbLine
 10
531.099999
 20
-247.400000
 30
0.0
 11
520.899999
 21
-247.400000
 31
0.0
  0
LINE
  5
259
100
AcDbEntity
  8
Ebene_1
 62
7
100
AcDbLine
 10
520.899999
 20
-247.400000
 30
0.0
 11
520.899999
 21
-243.300000
 31
0.0
  0
LINE
  5
25a
100
AcDbEntity
  8
Ebene_1
 62
7
100
AcDbLine
 10
520.899999
 20
-243.300000
 30
0.0
 11
509.700000
 21
-243.300000
 31
0.0
  0
LINE
  5
25b
100
AcDbEntity
  8
Ebene_1
 62
7
100
AcDbLine
 10
509.700000
 20
-243.300000
 30
0.0
 11
509.700000
 21
-247.400000
 31
0.0
  0
LINE
  5
25c
100
AcDbEntity
  8
Ebene_1
 62
7
100
AcDbLine
 10
509.700000
 20
-247.400000
 30
0.0
 11
499.500000
 21
-247.400000
 31
0.0
  0
LINE
  5
25d
100
AcDbEntity
  8
Ebene_1
 62
7
100
AcDbLine
 10
499.500000
 20
-247.400000
 30
0.0
 11
499.500000
 21
-243.300000
 31
0.0
  0
LINE
  5
25e
100
AcDbEntity
  8
Ebene_1
 62
7
100
AcDbLine
 10
499.500000
 20
-243.300000
 30
0.0
 11
488.300000
 21
-243.300000
 31
0.0
  0
LINE
  5
25f
100
AcDbEntity
  8
Ebene_1
 62
7
100
AcDbLine
 10
488.300000
 20
-243.300000
 30
0.0
 11
488.300000
 21
-247.400000
 31
0.0
  0
LINE
  5
260
100
AcDbEntity
  8
Ebene_1
 62
7
100
AcDbLine
 10
488.300000
 20
-247.400000
 30
0.0
 11
478.100000
 21
-247.400000
 31
0.0
  0
LINE
  5
261
100
AcDbEntity
  8
Ebene_1
 62
7
100
AcDbLine
 10
478.100000
 20
-247.400000
 30
0.0
 11
478.100000
 21
-243.300000
 31
0.0
  0
LINE
  5
262
100
AcDbEntity
  8
Ebene_1
 62
7
100
AcDbLine
 10
478.100000
 20
-243.300000
 30
0.0
 11
466.900000
 21
-243.300000
 31
0.0
  0
LINE
  5
263
100
AcDbEntity
  8
Ebene_1
 62
7
100
AcDbLine
 10
466.900000
 20
-243.300000
 30
0.0
 11
466.900000
 21
-247.400000
 31
0.0
  0
LINE
  5
264
100
AcDbEntity
  8
Ebene_1
 62
7
100
AcDbLine
 10
466.900000
 20
-247.400000
 30
0.0
 11
456.700000
 21
-247.400000
 31
0.0
  0
LINE
  5
265
100
AcDbEntity
  8
Ebene_1
 62
7
100
AcDbLine
 10
456.700000
 20
-247.400000
 30
0.0
 11
456.700000
 21
-243.300000
 31
0.0
  0
LINE
  5
266
100
AcDbEntity
  8
Ebene_1
 62
7
100
AcDbLine
 10
456.700000
 20
-243.300000
 30
0.0
 11
445.500000
 21
-243.300000
 31
0.0
  0
LINE
  5
267
100
AcDbEntity
  8
Ebene_1
 62
7
100
AcDbLine
 10
445.500000
 20
-243.300000
 30
0.0
 11
445.500000
 21
-247.400000
 31
0.0
  0
LINE
  5
268
100
AcDbEntity
  8
Ebene_1
 62
7
100
AcDbLine
 10
445.500000
 20
-247.400000
 30
0.0
 11
435.300000
 21
-247.400000
 31
0.0
  0
LINE
  5
269
100
AcDbEntity
  8
Ebene_1
 62
7
100
AcDbLine
 10
435.300000
 20
-247.400000
 30
0.0
 11
435.300000
 21
-243.300000
 31
0.0
  0
LINE
  5
26a
100
AcDbEntity
  8
Ebene_1
 62
7
100
AcDbLine
 10
435.300000
 20
-243.300000
 30
0.0
 11
424.100000
 21
-243.300000
 31
0.0
  0
LINE
  5
26b
100
AcDbEntity
  8
Ebene_1
 62
7
100
AcDbLine
 10
424.100000
 20
-243.300000
 30
0.0
 11
424.100000
 21
-247.400000
 31
0.0
  0
LINE
  5
26c
100
AcDbEntity
  8
Ebene_1
 62
7
100
AcDbLine
 10
424.100000
 20
-247.400000
 30
0.0
 11
413.900000
 21
-247.400000
 31
0.0
  0
LINE
  5
26d
100
AcDbEntity
  8
Ebene_1
 62
7
100
AcDbLine
 10
413.900000
 20
-247.400000
 30
0.0
 11
413.900000
 21
-243.300000
 31
0.0
  0
LINE
  5
26e
100
AcDbEntity
  8
Ebene_1
 62
7
100
AcDbLine
 10
413.900000
 20
-243.300000
 30
0.0
 11
402.700000
 21
-243.300000
 31
0.0
  0
LINE
  5
26f
100
AcDbEntity
  8
Ebene_1
 62
7
100
AcDbLine
 10
402.700000
 20
-243.300000
 30
0.0
 11
402.700000
 21
-247.400000
 31
0.0
  0
LINE
  5
270
100
AcDbEntity
  8
Ebene_1
 62
7
100
AcDbLine
 10
402.700000
 20
-247.400000
 30
0.0
 11
392.500000
 21
-247.400000
 31
0.0
  0
LINE
  5
271
100
AcDbEntity
  8
Ebene_1
 62
7
100
AcDbLine
 10
392.500000
 20
-247.400000
 30
0.0
 11
392.500000
 21
-243.300000
 31
0.0
  0
LINE
  5
272
100
AcDbEntity
  8
Ebene_1
 62
7
100
AcDbLine
 10
392.500000
 20
-243.300000
 30
0.0
 11
381.300000
 21
-243.300000
 31
0.0
  0
LINE
  5
273
100
AcDbEntity
  8
Ebene_1
 62
7
100
AcDbLine
 10
381.300000
 20
-243.300000
 30
0.0
 11
381.300000
 21
-247.400000
 31
0.0
  0
LINE
  5
274
100
AcDbEntity
  8
Ebene_1
 62
7
100
AcDbLine
 10
381.300000
 20
-247.400000
 30
0.0
 11
371.100000
 21
-247.400000
 31
0.0
  0
LINE
  5
275
100
AcDbEntity
  8
Ebene_1
 62
7
100
AcDbLine
 10
371.100000
 20
-247.400000
 30
0.0
 11
371.100000
 21
-243.300000
 31
0.0
  0
LINE
  5
276
100
AcDbEntity
  8
Ebene_1
 62
7
100
AcDbLine
 10
371.100000
 20
-243.300000
 30
0.0
 11
359.900000
 21
-243.300000
 31
0.0
  0
LINE
  5
277
100
AcDbEntity
  8
Ebene_1
 62
7
100
AcDbLine
 10
359.900000
 20
-243.300000
 30
0.0
 11
359.900000
 21
-247.400000
 31
0.0
  0
LINE
  5
278
100
AcDbEntity
  8
Ebene_1
 62
7
100
AcDbLine
 10
359.900000
 20
-247.400000
 30
0.0
 11
349.700000
 21
-247.400000
 31
0.0
  0
LINE
  5
279
100
AcDbEntity
  8
Ebene_1
 62
7
100
AcDbLine
 10
349.700000
 20
-247.400000
 30
0.0
 11
349.700000
 21
-243.300000
 31
0.0
  0
LINE
  5
27a
100
AcDbEntity
  8
Ebene_1
 62
7
100
AcDbLine
 10
349.700000
 20
-243.300000
 30
0.0
 11
342.500000
 21
-243.300000
 31
0.0
  0
LINE
  5
27b
100
AcDbEntity
  8
Ebene_1
 62
7
100
AcDbLine
 10
342.500000
 20
-243.300000
 30
0.0
 11
342.500000
 21
-236.100000
 31
0.0
  0
LINE
  5
27c
100
AcDbEntity
  8
Ebene_1
 62
7
100
AcDbLine
 10
342.500000
 20
-236.100000
 30
0.0
 11
338.400000
 21
-236.100000
 31
0.0
  0
LINE
  5
27d
100
AcDbEntity
  8
Ebene_1
 62
7
100
AcDbLine
 10
338.400000
 20
-236.100000
 30
0.0
 11
338.400000
 21
-225.900000
 31
0.0
  0
LINE
  5
27e
100
AcDbEntity
  8
Ebene_1
 62
7
100
AcDbLine
 10
338.400000
 20
-225.900000
 30
0.0
 11
342.500000
 21
-225.900000
 31
0.0
  0
LINE
  5
27f
100
AcDbEntity
  8
Ebene_1
 62
7
100
AcDbLine
 10
342.500000
 20
-225.900000
 30
0.0
 11
342.500000
 21
-214.700000
 31
0.0
  0
LINE
  5
280
100
AcDbEntity
  8
Ebene_1
 62
7
100
AcDbLine
 10
342.500000
 20
-214.700000
 30
0.0
 11
338.400000
 21
-214.700000
 31
0.0
  0
LINE
  5
281
100
AcDbEntity
  8
Ebene_1
 62
7
100
AcDbLine
 10
338.400000
 20
-214.700000
 30
0.0
 11
338.400000
 21
-204.500000
 31
0.0
  0
LINE
  5
282
100
AcDbEntity
  8
Ebene_1
 62
7
100
AcDbLine
 10
338.400000
 20
-204.500000
 30
0.0
 11
342.500000
 21
-204.500000
 31
0.0
  0
LINE
  5
283
100
AcDbEntity
  8
Ebene_1
 62
7
100
AcDbLine
 10
342.500000
 20
-204.500000
 30
0.0
 11
342.500000
 21
-193.300000
 31
0.0
  0
LINE
  5
284
100
AcDbEntity
  8
Ebene_1
 62
7
100
AcDbLine
 10
342.500000
 20
-193.300000
 30
0.0
 11
338.400000
 21
-193.300000
 31
0.0
  0
LINE
  5
285
100
AcDbEntity
  8
Ebene_1
 62
7
100
AcDbLine
 10
338.400000
 20
-193.300000
 30
0.0
 11
338.400000
 21
-183.100000
 31
0.0
  0
LINE
  5
286
100
AcDbEntity
  8
Ebene_1
 62
7
100
AcDbLine
 10
338.400000
 20
-183.100000
 30
0.0
 11
342.500000
 21
-183.100000
 31
0.0
  0
LINE
  5
287
100
AcDbEntity
  8
Ebene_1
 62
7
100
AcDbLine
 10
342.500000
 20
-183.100000
 30
0.0
 11
342.500000
 21
-171.900000
 31
0.0
  0
LINE
  5
288
100
AcDbEntity
  8
Ebene_1
 62
7
100
AcDbLine
 10
342.500000
 20
-171.900000
 30
0.0
 11
338.400000
 21
-171.900000
 31
0.0
  0
LINE
  5
289
100
AcDbEntity
  8
Ebene_1
 62
7
100
AcDbLine
 10
338.400000
 20
-171.900000
 30
0.0
 11
338.400000
 21
-161.700000
 31
0.0
  0
LINE
  5
28a
100
AcDbEntity
  8
Ebene_1
 62
7
100
AcDbLine
 10
338.400000
 20
-161.700000
 30
0.0
 11
342.500000
 21
-161.700000
 31
0.0
  0
LINE
  5
28b
100
AcDbEntity
  8
Ebene_1
 62
7
100
AcDbLine
 10
342.500000
 20
-161.700000
 30
0.0
 11
342.500000
 21
-150.500000
 31
0.0
  0
LINE
  5
28c
100
AcDbEntity
  8
Ebene_1
 62
7
100
AcDbLine
 10
342.500000
 20
-150.500000
 30
0.0
 11
338.400000
 21
-150.500000
 31
0.0
  0
LINE
  5
28d
100
AcDbEntity
  8
Ebene_1
 62
7
100
AcDbLine
 10
338.400000
 20
-150.500000
 30
0.0
 11
338.400000
 21
-140.300000
 31
0.0
  0
LINE
  5
28e
100
AcDbEntity
  8
Ebene_1
 62
7
100
AcDbLine
 10
338.400000
 20
-140.300000
 30
0.0
 11
342.500000
 21
-140.300000
 31
0.0
  0
LINE
  5
28f
100
AcDbEntity
  8
Ebene_1
 62
7
100
AcDbLine
 10
342.500000
 20
-140.300000
 30
0.0
 11
342.500000
 21
-129.100000
 31
0.0
  0
LINE
  5
290
100
AcDbEntity
  8
Ebene_1
 62
7
100
AcDbLine
 10
342.500000
 20
-129.100000
 30
0.0
 11
338.400000
 21
-129.100000
 31
0.0
  0
LINE
  5
291
100
AcDbEntity
  8
Ebene_1
 62
7
100
AcDbLine
 10
338.400000
 20
-129.100000
 30
0.0
 11
338.400000
 21
-118.900000
 31
0.0
  0
LINE
  5
292
100
AcDbEntity
  8
Ebene_1
 62
7
100
AcDbLine
 10
338.400000
 20
-118.900000
 30
0.0
 11
342.500000
 21
-118.900000
 31
0.0
  0
LINE
  5
293
100
AcDbEntity
  8
Ebene_1
 62
7
100
AcDbLine
 10
342.500000
 20
-118.900000
 30
0.0
 11
342.500000
 21
-107.700000
 31
0.0
  0
LINE
  5
294
100
AcDbEntity
  8
Ebene_1
 62
7
100
AcDbLine
 10
342.500000
 20
-107.700000
 30
0.0
 11
338.400000
 21
-107.700000
 31
0.0
  0
LINE
  5
295
100
AcDbEntity
  8
Ebene_1
 62
7
100
AcDbLine
 10
338.400000
 20
-107.700000
 30
0.0
 11
338.400000
 21
-97.500000
 31
0.0
  0
LINE
  5
296
100
AcDbEntity
  8
Ebene_1
 62
7
100
AcDbLine
 10
338.400000
 20
-97.500000
 30
0.0
 11
342.500000
 21
-97.500000
 31
0.0
  0
LINE
  5
297
100
AcDbEntity
  8
Ebene_1
 62
7
100
AcDbLine
 10
342.500000
 20
-97.500000
 30
0.0
 11
342.500000
 21
-86.300000
 31
0.0
  0
LINE
  5
298
100
AcDbEntity
  8
Ebene_1
 62
7
100
AcDbLine
 10
342.500000
 20
-86.300000
 30
0.0
 11
338.400000
 21
-86.300000
 31
0.0
  0
LINE
  5
299
100
AcDbEntity
  8
Ebene_1
 62
7
100
AcDbLine
 10
338.400000
 20
-86.300000
 30
0.0
 11
338.400000
 21
-76.100000
 31
0.0
  0
LINE
  5
29a
100
AcDbEntity
  8
Ebene_1
 62
7
100
AcDbLine
 10
338.400000
 20
-76.100000
 30
0.0
 11
342.500000
 21
-76.100000
 31
0.0
  0
LINE
  5
29b
100
AcDbEntity
  8
Ebene_1
 62
7
100
AcDbLine
 10
342.500000
 20
-76.100000
 30
0.0
 11
342.500000
 21
-64.900000
 31
0.0
  0
LINE
  5
29c
100
AcDbEntity
  8
Ebene_1
 62
7
100
AcDbLine
 10
342.500000
 20
-64.900000
 30
0.0
 11
338.400000
 21
-64.900000
 31
0.0
  0
LINE
  5
29d
100
AcDbEntity
  8
Ebene_1
 62
7
100
AcDbLine
 10
338.400000
 20
-64.900000
 30
0.0
 11
338.400000
 21
-54.700000
 31
0.0
  0
LINE
  5
29e
100
AcDbEntity
  8
Ebene_1
 62
7
100
AcDbLine
 10
338.400000
 20
-54.700000
 30
0.0
 11
342.500000
 21
-54.700000
 31
0.0
  0
LINE
  5
29f
100
AcDbEntity
  8
Ebene_1
 62
7
100
AcDbLine
 10
342.500000
 20
-54.700000
 30
0.0
 11
342.500000
 21
-43.500000
 31
0.0
  0
LINE
  5
2a0
100
AcDbEntity
  8
Ebene_1
 62
7
100
AcDbLine
 10
342.500000
 20
-43.500000
 30
0.0
 11
338.400000
 21
-43.500000
 31
0.0
  0
LINE
  5
2a1
100
AcDbEntity
  8
Ebene_1
 62
7
100
AcDbLine
 10
338.400000
 20
-43.500000
 30
0.0
 11
338.400000
 21
-33.300000
 31
0.0
  0
LINE
  5
2a2
100
AcDbEntity
  8
Ebene_1
 62
7
100
AcDbLine
 10
338.400000
 20
-33.300000
 30
0.0
 11
342.500000
 21
-33.300000
 31
0.0
  0
LINE
  5
2a3
100
AcDbEntity
  8
Ebene_1
 62
7
100
AcDbLine
 10
342.500000
 20
-33.300000
 30
0.0
 11
342.500000
 21
-22.100000
 31
0.0
  0
LINE
  5
2a4
100
AcDbEntity
  8
Ebene_1
 62
7
100
AcDbLine
 10
342.500000
 20
-22.100000
 30
0.0
 11
338.400000
 21
-22.100000
 31
0.0
  0
LINE
  5
2a5
100
AcDbEntity
  8
Ebene_1
 62
7
100
AcDbLine
 10
338.400000
 20
-22.100000
 30
0.0
 11
338.400000
 21
-11.900000
 31
0.0
  0
LINE
  5
2a6
100
AcDbEntity
  8
Ebene_1
 62
7
100
AcDbLine
 10
338.400000
 20
-11.900000
 30
0.0
 11
342.500000
 21
-11.900000
 31
0.0
  0
LINE
  5
2a7
100
AcDbEntity
  8
Ebene_1
 62
7
100
AcDbLine
 10
342.500000
 20
-11.900000
 30
0.0
 11
342.500000
 21
-0.700000
 31
0.0
  0
LINE
  5
2a8
100
AcDbEntity
  8
Ebene_1
 62
7
100
AcDbLine
 10
342.500000
 20
-0.700000
 30
0.0
 11
338.400000
 21
-0.700000
 31
0.0
  0
LINE
  5
2a9
100
AcDbEntity
  8
Ebene_1
 62
7
100
AcDbLine
 10
338.400000
 20
-0.700000
 30
0.0
 11
338.400000
 21
9.500000
 31
0.0
  0
LINE
  5
2aa
100
AcDbEntity
  8
Ebene_1
 62
7
100
AcDbLine
 10
338.400000
 20
9.500000
 30
0.0
 11
342.500000
 21
9.500000
 31
0.0
  0
LINE
  5
2ab
100
AcDbEntity
  8
Ebene_1
 62
7
100
AcDbLine
 10
342.500000
 20
9.500000
 30
0.0
 11
342.500000
 21
16.700000
 31
0.0
  0
LINE
  5
2ac
100
AcDbEntity
  8
Ebene_1
 62
7
100
AcDbLine
 10
610.599999
 20
20.800000
 30
0.0
 11
623.433333
 21
20.800000
 31
0.0
  0
LINE
  5
2ad
100
AcDbEntity
  8
Ebene_1
 62
7
100
AcDbLine
 10
623.433333
 20
20.800000
 30
0.0
 11
623.433333
 21
16.700000
 31
0.0
  0
LINE
  5
2ae
100
AcDbEntity
  8
Ebene_1
 62
7
100
AcDbLine
 10
623.433333
 20
16.700000
 30
0.0
 11
633.233333
 21
16.700000
 31
0.0
  0
LINE
  5
2af
100
AcDbEntity
  8
Ebene_1
 62
7
100
AcDbLine
 10
633.233333
 20
16.700000
 30
0.0
 11
633.233333
 21
20.800000
 31
0.0
  0
LINE
  5
2b0
100
AcDbEntity
  8
Ebene_1
 62
7
100
AcDbLine
 10
633.233333
 20
20.800000
 30
0.0
 11
646.166666
 21
20.800000
 31
0.0
  0
LINE
  5
2b1
100
AcDbEntity
  8
Ebene_1
 62
7
100
AcDbLine
 10
646.166666
 20
20.800000
 30
0.0
 11
646.166666
 21
16.700000
 31
0.0
  0
LINE
  5
2b2
100
AcDbEntity
  8
Ebene_1
 62
7
100
AcDbLine
 10
646.166666
 20
16.700000
 30
0.0
 11
655.966666
 21
16.700000
 31
0.0
  0
LINE
  5
2b3
100
AcDbEntity
  8
Ebene_1
 62
7
100
AcDbLine
 10
655.966666
 20
16.700000
 30
0.0
 11
655.966666
 21
20.800000
 31
0.0
  0
LINE
  5
2b4
100
AcDbEntity
  8
Ebene_1
 62
7
100
AcDbLine
 10
655.966666
 20
20.800000
 30
0.0
 11
668.799999
 21
20.800000
 31
0.0
  0
LINE
  5
2b5
100
AcDbEntity
  8
Ebene_1
 62
7
100
AcDbLine
 10
668.799999
 20
20.800000
 30
0.0
 11
668.799999
 21
9.300000
 31
0.0
  0
LINE
  5
2b6
100
AcDbEntity
  8
Ebene_1
 62
7
100
AcDbLine
 10
668.799999
 20
9.300000
 30
0.0
 11
664.699999
 21
9.300000
 31
0.0
  0
LINE
  5
2b7
100
AcDbEntity
  8
Ebene_1
 62
7
100
AcDbLine
 10
664.699999
 20
9.300000
 30
0.0
 11
664.699999
 21
-0.500000
 31
0.0
  0
LINE
  5
2b8
100
AcDbEntity
  8
Ebene_1
 62
7
100
AcDbLine
 10
664.699999
 20
-0.500000
 30
0.0
 11
668.799999
 21
-0.500000
 31
0.0
  0
LINE
  5
2b9
100
AcDbEntity
  8
Ebene_1
 62
7
100
AcDbLine
 10
668.799999
 20
-0.500000
 30
0.0
 11
668.799999
 21
-12.100000
 31
0.0
  0
LINE
  5
2ba
100
AcDbEntity
  8
Ebene_1
 62
7
100
AcDbLine
 10
668.799999
 20
-12.100000
 30
0.0
 11
664.699999
 21
-12.100000
 31
0.0
  0
LINE
  5
2bb
100
AcDbEntity
  8
Ebene_1
 62
7
100
AcDbLine
 10
664.699999
 20
-12.100000
 30
0.0
 11
664.699999
 21
-21.900000
 31
0.0
  0
LINE
  5
2bc
100
AcDbEntity
  8
Ebene_1
 62
7
100
AcDbLine
 10
664.699999
 20
-21.900000
 30
0.0
 11
668.799999
 21
-21.900000
 31
0.0
  0
LINE
  5
2bd
100
AcDbEntity
  8
Ebene_1
 62
7
100
AcDbLine
 10
668.799999
 20
-21.900000
 30
0.0
 11
668.799999
 21
-33.500000
 31
0.0
  0
LINE
  5
2be
100
AcDbEntity
  8
Ebene_1
 62
7
100
AcDbLine
 10
668.799999
 20
-33.500000
 30
0.0
 11
664.699999
 21
-33.500000
 31
0.0
  0
LINE
  5
2bf
100
AcDbEntity
  8
Ebene_1
 62
7
100
AcDbLine
 10
664.699999
 20
-33.500000
 30
0.0
 11
664.699999
 21
-43.300000
 31
0.0
  0
LINE
  5
2c0
100
AcDbEntity
  8
Ebene_1
 62
7
100
AcDbLine
 10
664.699999
 20
-43.300000
 30
0.0
 11
668.799999
 21
-43.300000
 31
0.0
  0
LINE
  5
2c1
100
AcDbEntity
  8
Ebene_1
 62
7
100
AcDbLine
 10
668.799999
 20
-43.300000
 30
0.0
 11
668.799999
 21
-54.900000
 31
0.0
  0
LINE
  5
2c2
100
AcDbEntity
  8
Ebene_1
 62
7
100
AcDbLine
 10
668.799999
 20
-54.900000
 30
0.0
 11
664.699999
 21
-54.900000
 31
0.0
  0
LINE
  5
2c3
100
AcDbEntity
  8
Ebene_1
 62
7
100
AcDbLine
 10
664.699999
 20
-54.900000
 30
0.0
 11
664.699999
 21
-64.700000
 31
0.0
  0
LINE
  5
2c4
100
AcDbEntity
  8
Ebene_1
 62
7
100
AcDbLine
 10
664.699999
 20
-64.700000
 30
0.0
 11
668.799999
 21
-64.700000
 31
0.0
  0
LINE
  5
2c5
100
AcDbEntity
  8
Ebene_1
 62
7
100
AcDbLine
 10
668.799999
 20
-64.700000
 30
0.0
 11
668.799999
 21
-76.300000
 31
0.0
  0
LINE
  5
2c6
100
AcDbEntity
  8
Ebene_1
 62
7
100
AcDbLine
 10
668.799999
 20
-76.300000
 30
0.0
 11
664.699999
 21
-76.300000
 31
0.0
  0
LINE
  5
2c7
100
AcDbEntity
  8
Ebene_1
 62
7
100
AcDbLine
 10
664.699999
 20
-76.300000
 30
0.0
 11
664.699999
 21
-86.100000
 31
0.0
  0
LINE
  5
2c8
100
AcDbEntity
  8
Ebene_1
 62
7
100
AcDbLine
 10
664.699999
 20
-86.100000
 30
0.0
 11
668.799999
 21
-86.100000
 31
0.0
  0
LINE
  5
2c9
100
AcDbEntity
  8
Ebene_1
 62
7
100
AcDbLine
 10
668.799999
 20
-86.100000
 30
0.0
 11
668.799999
 21
-97.700000
 31
0.0
  0
LINE
  5
2ca
100
AcDbEntity
  8
Ebene_1
 62
7
100
AcDbLine
 10
668.799999
 20
-97.700000
 30
0.0
 11
664.699999
 21
-97.700000
 31
0.0
  0
LINE
  5
2cb
100
AcDbEntity
  8
Ebene_1
 62
7
100
AcDbLine
 10
664.699999
 20
-97.700000
 30
0.0
 11
664.699999
 21
-107.500000
 31
0.0
  0
LINE
  5
2cc
100
AcDbEntity
  8
Ebene_1
 62
7
100
AcDbLine
 10
664.699999
 20
-107.500000
 30
0.0
 11
668.799999
 21
-107.500000
 31
0.0
  0
LINE
  5
2cd
100
AcDbEntity
  8
Ebene_1
 62
7
100
AcDbLine
 10
668.799999
 20
-107.500000
 30
0.0
 11
668.799999
 21
-119.100000
 31
0.0
  0
LINE
  5
2ce
100
AcDbEntity
  8
Ebene_1
 62
7
100
AcDbLine
 10
668.799999
 20
-119.100000
 30
0.0
 11
664.699999
 21
-119.100000
 31
0.0
  0
LINE
  5
2cf
100
AcDbEntity
  8
Ebene_1
 62
7
100
AcDbLine
 10
664.699999
 20
-119.100000
 30
0.0
 11
664.699999
 21
-128.900000
 31
0.0
  0
LINE
  5
2d0
100
AcDbEntity
  8
Ebene_1
 62
7
100
AcDbLine
 10
664.699999
 20
-128.900000
 30
0.0
 11
668.799999
 21
-128.900000
 31
0.0
  0
LINE
  5
2d1
100
AcDbEntity
  8
Ebene_1
 62
7
100
AcDbLine
 10
668.799999
 20
-128.900000
 30
0.0
 11
668.799999
 21
-140.500000
 31
0.0
  0
LINE
  5
2d2
100
AcDbEntity
  8
Ebene_1
 62
7
100
AcDbLine
 10
668.799999
 20
-140.500000
 30
0.0
 11
664.699999
 21
-140.500000
 31
0.0
  0
LINE
  5
2d3
100
AcDbEntity
  8
Ebene_1
 62
7
100
AcDbLine
 10
664.699999
 20
-140.500000
 30
0.0
 11
664.699999
 21
-150.300000
 31
0.0
  0
LINE
  5
2d4
100
AcDbEntity
  8
Ebene_1
 62
7
100
AcDbLine
 10
664.699999
 20
-150.300000
 30
0.0
 11
668.799999
 21
-150.300000
 31
0.0
  0
LINE
  5
2d5
100
AcDbEntity
  8
Ebene_1
 62
7
100
AcDbLine
 10
668.799999
 20
-150.300000
 30
0.0
 11
668.799999
 21
-161.900000
 31
0.0
  0
LINE
  5
2d6
100
AcDbEntity
  8
Ebene_1
 62
7
100
AcDbLine
 10
668.799999
 20
-161.900000
 30
0.0
 11
664.699999
 21
-161.900000
 31
0.0
  0
LINE
  5
2d7
100
AcDbEntity
  8
Ebene_1
 62
7
100
AcDbLine
 10
664.699999
 20
-161.900000
 30
0.0
 11
664.699999
 21
-171.700000
 31
0.0
  0
LINE
  5
2d8
100
AcDbEntity
  8
Ebene_1
 62
7
100
AcDbLine
 10
664.699999
 20
-171.700000
 30
0.0
 11
668.799999
 21
-171.700000
 31
0.0
  0
LINE
  5
2d9
100
AcDbEntity
  8
Ebene_1
 62
7
100
AcDbLine
 10
668.799999
 20
-171.700000
 30
0.0
 11
668.799999
 21
-183.300000
 31
0.0
  0
LINE
  5
2da
100
AcDbEntity
  8
Ebene_1
 62
7
100
AcDbLine
 10
668.799999
 20
-183.300000
 30
0.0
 11
664.699999
 21
-183.300000
 31
0.0
  0
LINE
  5
2db
100
AcDbEntity
  8
Ebene_1
 62
7
100
AcDbLine
 10
664.699999
 20
-183.300000
 30
0.0
 11
664.699999
 21
-193.100000
 31
0.0
  0
LINE
  5
2dc
100
AcDbEntity
  8
Ebene_1
 62
7
100
AcDbLine
 10
664.699999
 20
-193.100000
 30
0.0
 11
668.799999
 21
-193.100000
 31
0.0
  0
LINE
  5
2dd
100
AcDbEntity
  8
Ebene_1
 62
7
100
AcDbLine
 10
668.799999
 20
-193.100000
 30
0.0
 11
668.799999
 21
-204.700000
 31
0.0
  0
LINE
  5
2de
100
AcDbEntity
  8
Ebene_1
 62
7
100
AcDbLine
 10
668.799999
 20
-204.700000
 30
0.0
 11
664.699999
 21
-204.700000
 31
0.0
  0
LINE
  5
2df
100
AcDbEntity
  8
Ebene_1
 62
7
100
AcDbLine
 10
664.699999
 20
-204.700000
 30
0.0
 11
664.699999
 21
-214.500000
 31
0.0
  0
LINE
  5
2e0
100
AcDbEntity
  8
Ebene_1
 62
7
100
AcDbLine
 10
664.699999
 20
-214.500000
 30
0.0
 11
668.799999
 21
-214.500000
 31
0.0
  0
LINE
  5
2e1
100
AcDbEntity
  8
Ebene_1
 62
7
100
AcDbLine
 10
668.799999
 20
-214.500000
 30
0.0
 11
668.799999
 21
-226.100000
 31
0.0
  0
LINE
  5
2e2
100
AcDbEntity
  8
Ebene_1
 62
7
100
AcDbLine
 10
668.799999
 20
-226.100000
 30
0.0
 11
664.699999
 21
-226.100000
 31
0.0
  0
LINE
  5
2e3
100
AcDbEntity
  8
Ebene_1
 62
7
100
AcDbLine
 10
664.699999
 20
-226.100000
 30
0.0
 11
664.699999
 21
-235.900000
 31
0.0
  0
LINE
  5
2e4
100
AcDbEntity
  8
Ebene_1
 62
7
100
AcDbLine
 10
664.699999
 20
-235.900000
 30
0.0
 11
668.799999
 21
-235.900000
 31
0.0
  0
LINE
  5
2e5
100
AcDbEntity
  8
Ebene_1
 62
7
100
AcDbLine
 10
668.799999
 20
-235.900000
 30
0.0
 11
668.799999
 21
-247.400000
 31
0.0
  0
LINE
  5
2e6
100
AcDbEntity
  8
Ebene_1
 62
7
100
AcDbLine
 10
668.799999
 20
-247.400000
 30
0.0
 11
655.966666
 21
-247.400000
 31
0.0
  0
LINE
  5
2e7
100
AcDbEntity
  8
Ebene_1
 62
7
100
AcDbLine
 10
655.966666
 20
-247.400000
 30
0.0
 11
655.966666
 21
-243.300000
 31
0.0
  0
LINE
  5
2e8
100
AcDbEntity
  8
Ebene_1
 62
7
100
AcDbLine
 10
655.966666
 20
-243.300000
 30
0.0
 11
646.166666
 21
-243.300000
 31
0.0
  0
LINE
  5
2e9
100
AcDbEntity
  8
Ebene_1
 62
7
100
AcDbLine
 10
646.166666
 20
-243.300000
 30
0.0
 11
646.166666
 21
-247.400000
 31
0.0
  0
LINE
  5
2ea
100
AcDbEntity
  8
Ebene_1
 62
7
100
AcDbLine
 10
646.166666
 20
-247.400000
 30
0.0
 11
633.233333
 21
-247.400000
 31
0.0
  0
LINE
  5
2eb
100
AcDbEntity
  8
Ebene_1
 62
7
100
AcDbLine
 10
633.233333
 20
-247.400000
 30
0.0
 11
633.233333
 21
-243.300000
 31
0.0
  0
LINE
  5
2ec
100
AcDbEntity
  8
Ebene_1
 62
7
100
AcDbLine
 10
633.233333
 20
-243.300000
 30
0.0
 11
623.433333
 21
-243.300000
 31
0.0
  0
LINE
  5
2ed
100
AcDbEntity
  8
Ebene_1
 62
7
100
AcDbLine
 10
623.433333
 20
-243.300000
 30
0.0
 11
623.433333
 21
-247.400000
 31
0.0
  0
LINE
  5
2ee
100
AcDbEntity
  8
Ebene_1
 62
7
100
AcDbLine
 10
623.433333
 20
-247.400000
 30
0.0
 11
610.599999
 21
-247.400000
 31
0.0
  0
LINE
  5
2ef
100
AcDbEntity
  8
Ebene_1
 62
7
100
AcDbLine
 10
610.599999
 20
-247.400000
 30
0.0
 11
610.599999
 21
-235.900000
 31
0.0
  0
LINE
  5
2f0
100
AcDbEntity
  8
Ebene_1
 62
7
100
AcDbLine
 10
610.599999
 20
-235.900000
 30
0.0
 11
614.699999
 21
-235.900000
 31
0.0
  0
LINE
  5
2f1
100
AcDbEntity
  8
Ebene_1
 62
7
100
AcDbLine
 10
614.699999
 20
-235.900000
 30
0.0
 11
614.699999
 21
-226.100000
 31
0.0
  0
LINE
  5
2f2
100
AcDbEntity
  8
Ebene_1
 62
7
100
AcDbLine
 10
614.699999
 20
-226.100000
 30
0.0
 11
610.599999
 21
-226.100000
 31
0.0
  0
LINE
  5
2f3
100
AcDbEntity
  8
Ebene_1
 62
7
100
AcDbLine
 10
610.599999
 20
-226.100000
 30
0.0
 11
610.599999
 21
-214.500000
 31
0.0
  0
LINE
  5
2f4
100
AcDbEntity
  8
Ebene_1
 62
7
100
AcDbLine
 10
610.599999
 20
-214.500000
 30
0.0
 11
614.699999
 21
-214.500000
 31
0.0
  0
LINE
  5
2f5
100
AcDbEntity
  8
Ebene_1
 62
7
100
AcDbLine
 10
614.699999
 20
-214.500000
 30
0.0
 11
614.699999
 21
-204.700000
 31
0.0
  0
LINE
  5
2f6
100
AcDbEntity
  8
Ebene_1
 62
7
100
AcDbLine
 10
614.699999
 20
-204.700000
 30
0.0
 11
610.599999
 21
-204.700000
 31
0.0
  0
LINE
  5
2f7
100
AcDbEntity
  8
Ebene_1
 62
7
100
AcDbLine
 10
610.599999
 20
-204.700000
 30
0.0
 11
610.599999
 21
-193.100000
 31
0.0
  0
LINE
  5
2f8
100
AcDbEntity
  8
Ebene_1
 62
7
100
AcDbLine
 10
610.599999
 20
-193.100000
 30
0.0
 11
614.699999
 21
-193.100000
 31
0.0
  0
LINE
  5
2f9
100
AcDbEntity
  8
Ebene_1
 62
7
100
AcDbLine
 10
614.699999
 20
-193.100000
 30
0.0
 11
614.699999
 21
-183.300000
 31
0.0
  0
LINE
  5
2fa
100
AcDbEntity
  8
Ebene_1
 62
7
100
AcDbLine
 10
614.699999
 20
-183.300000
 30
0.0
 11
610.599999
 21
-183.300000
 31
0.0
  0
LINE
  5
2fb
100
AcDbEntity
  8
Ebene_1
 62
7
100
AcDbLine
 10
610.599999
 20
-183.300000
 30
0.0
 11
610.599999
 21
-171.700000
 31
0.0
  0
LINE
  5
2fc
100
AcDbEntity
  8
Ebene_1
 62
7
100
AcDbLine
 10
610.599999
 20
-171.700000
 30
0.0
 11
614.699999
 21
-171.700000
 31
0.0
  0
LINE
  5
2fd
100
AcDbEntity
  8
Ebene_1
 62
7
100
AcDbLine
 10
614.699999
 20
-171.700000
 30
0.0
 11
614.699999
 21
-161.900000
 31
0.0
  0
LINE
  5
2fe
100
AcDbEntity
  8
Ebene_1
 62
7
100
AcDbLine
 10
614.699999
 20
-161.900000
 30
0.0
 11
610.599999
 21
-161.900000
 31
0.0
  0
LINE
  5
2ff
100
AcDbEntity
  8
Ebene_1
 62
7
100
AcDbLine
 10
610.599999
 20
-161.900000
 30
0.0
 11
610.599999
 21
-150.300000
 31
0.0
  0
LINE
  5
300
100
AcDbEntity
  8
Ebene_1
 62
7
100
AcDbLine
 10
610.599999
 20
-150.300000
 30
0.0
 11
614.699999
 21
-150.300000
 31
0.0
  0
LINE
  5
301
100
AcDbEntity
  8
Ebene_1
 62
7
100
AcDbLine
 10
614.699999
 20
-150.300000
 30
0.0
 11
614.699999
 21
-140.500000
 31
0.0
  0
LINE
  5
302
100
AcDbEntity
  8
Ebene_1
 62
7
100
AcDbLine
 10
614.699999
 20
-140.500000
 30
0.0
 11
610.599999
 21
-140.500000
 31
0.0
  0
LINE
  5
303
100
AcDbEntity
  8
Ebene_1
 62
7
100
AcDbLine
 10
610.599999
 20
-140.500000
 30
0.0
 11
610.599999
 21
-128.900000
 31
0.0
  0
LINE
  5
304
100
AcDbEntity
  8
Ebene_1
 62
7
100
AcDbLine
 10
610.599999
 20
-128.900000
 30
0.0
 11
614.699999
 21
-128.900000
 31
0.0
  0
LINE
  5
305
100
AcDbEntity
  8
Ebene_1
 62
7
100
AcDbLine
 10
614.699999
 20
-128.900000
 30
0.0
 11
614.699999
 21
-119.100000
 31
0.0
  0
LINE
  5
306
100
AcDbEntity
  8
Ebene_1
 62
7
100
AcDbLine
 10
614.699999
 20
-119.100000
 30
0.0
 11
610.599999
 21
-119.100000
 31
0.0
  0
LINE
  5
307
100
AcDbEntity
  8
Ebene_1
 62
7
100
AcDbLine
 10
610.599999
 20
-119.100000
 30
0.0
 11
610.599999
 21
-107.500000
 31
0.0
  0
LINE
  5
308
100
AcDbEntity
  8
Ebene_1
 62
7
100
AcDbLine
 10
610.599999
 20
-107.500000
 30
0.0
 11
614.699999
 21
-107.500000
 31
0.0
  0
LINE
  5
309
100
AcDbEntity
  8
Ebene_1
 62
7
100
AcDbLine
 10
614.699999
 20
-107.500000
 30
0.0
 11
614.699999
 21
-97.700000
 31
0.0
  0
LINE
  5
30a
100
AcDbEntity
  8
Ebene_1
 62
7
100
AcDbLine
 10
614.699999
 20
-97.700000
 30
0.0
 11
610.599999
 21
-97.700000
 31
0.0
  0
LINE
  5
30b
100
AcDbEntity
  8
Ebene_1
 62
7
100
AcDbLine
 10
610.599999
 20
-97.700000
 30
0.0
 11
610.599999
 21
-86.100000
 31
0.0
  0
LINE
  5
30c
100
AcDbEntity
  8
Ebene_1
 62
7
100
AcDbLine
 10
610.599999
 20
-86.100000
 30
0.0
 11
614.699999
 21
-86.100000
 31
0.0
  0
LINE
  5
30d
100
AcDbEntity
  8
Ebene_1
 62
7
100
AcDbLine
 10
614.699999
 20
-86.100000
 30
0.0
 11
614.699999
 21
-76.300000
 31
0.0
  0
LINE
  5
30e
100
AcDbEntity
  8
Ebene_1
 62
7
100
AcDbLine
 10
614.699999
 20
-76.300000
 30
0.0
 11
610.599999
 21
-76.300000
 31
0.0
  0
LINE
  5
30f
100
AcDbEntity
  8
Ebene_1
 62
7
100
AcDbLine
 10
610.599999
 20
-76.300000
 30
0.0
 11
610.599999
 21
-64.700000
 31
0.0
  0
LINE
  5
310
100
AcDbEntity
  8
Ebene_1
 62
7
100
AcDbLine
 10
610.599999
 20
-64.700000
 30
0.0
 11
614.699999
 21
-64.700000
 31
0.0
  0
LINE
  5
311
100
AcDbEntity
  8
Ebene_1
 62
7
100
AcDbLine
 10
614.699999
 20
-64.700000
 30
0.0
 11
614.699999
 21
-54.900000
 31
0.0
  0
LINE
  5
312
100
AcDbEntity
  8
Ebene_1
 62
7
100
AcDbLine
 10
614.699999
 20
-54.900000
 30
0.0
 11
610.599999
 21
-54.900000
 31
0.0
  0
LINE
  5
313
100
AcDbEntity
  8
Ebene_1
 62
7
100
AcDbLine
 10
610.599999
 20
-54.900000
 30
0.0
 11
610.599999
 21
-43.300000
 31
0.0
  0
LINE
  5
314
100
AcDbEntity
  8
Ebene_1
 62
7
100
AcDbLine
 10
610.599999
 20
-43.300000
 30
0.0
 11
614.699999
 21
-43.300000
 31
0.0
  0
LINE
  5
315
100
AcDbEntity
  8
Ebene_1
 62
7
100
AcDbLine
 10
614.699999
 20
-43.300000
 30
0.0
 11
614.699999
 21
-33.500000
 31
0.0
  0
LINE
  5
316
100
AcDbEntity
  8
Ebene_1
 62
7
100
AcDbLine
 10
614.699999
 20
-33.500000
 30
0.0
 11
610.599999
 21
-33.500000
 31
0.0
  0
LINE
  5
317
100
AcDbEntity
  8
Ebene_1
 62
7
100
AcDbLine
 10
610.599999
 20
-33.500000
 30
0.0
 11
610.599999
 21
-21.900000
 31
0.0
  0
LINE
  5
318
100
AcDbEntity
  8
Ebene_1
 62
7
100
AcDbLine
 10
610.599999
 20
-21.900000
 30
0.0
 11
614.699999
 21
-21.900000
 31
0.0
  0
LINE
  5
319
100
AcDbEntity
  8
Ebene_1
 62
7
100
AcDbLine
 10
614.699999
 20
-21.900000
 30
0.0
 11
614.699999
 21
-12.100000
 31
0.0
  0
LINE
  5
31a
100
AcDbEntity
  8
Ebene_1
 62
7
100
AcDbLine
 10
614.699999
 20
-12.100000
 30
0.0
 11
610.599999
 21
-12.100000
 31
0.0
  0
LINE
  5
31b
100
AcDbEntity
  8
Ebene_1
 62
7
100
AcDbLine
 10
610.599999
 20
-12.100000
 30
0.0
 11
610.599999
 21
-0.500000
 31
0.0
  0
LINE
  5
31c
100
AcDbEntity
  8
Ebene_1
 62
7
100
AcDbLine
 10
610.599999
 20
-0.500000
 30
0.0
 11
614.699999
 21
-0.500000
 31
0.0
  0
LINE
  5
31d
100
AcDbEntity
  8
Ebene_1
 62
7
100
AcDbLine
 10
614.699999
 20
-0.500000
 30
0.0
 11
614.699999
 21
9.300000
 31
0.0
  0
LINE
  5
31e
100
AcDbEntity
  8
Ebene_1
 62
7
100
AcDbLine
 10
614.699999
 20
9.300000
 30
0.0
 11
610.599999
 21
9.300000
 31
0.0
  0
LINE
  5
31f
100
AcDbEntity
  8
Ebene_1
 62
7
100
AcDbLine
 10
610.599999
 20
9.300000
 30
0.0
 11
610.599999
 21
20.800000
 31
0.0
  0
LINE
  5
320
100
AcDbEntity
  8
Ebene_1
 62
7
100
AcDbLine
 10
276.200000
 20
288.900000
 30
0.0
 11
288.833333
 21
288.900000
 31
0.0
  0
LINE
  5
321
100
AcDbEntity
  8
Ebene_1
 62
7
100
AcDbLine
 10
288.833333
 20
288.900000
 30
0.0
 11
288.833333
 21
293.000000
 31
0.0
  0
LINE
  5
322
100
AcDbEntity
  8
Ebene_1
 62
7
100
AcDbLine
 10
288.833333
 20
293.000000
 30
0.0
 11
299.033333
 21
293.000000
 31
0.0
  0
LINE
  5
323
100
AcDbEntity
  8
Ebene_1
 62
7
100
AcDbLine
 10
299.033333
 20
293.000000
 30
0.0
 11
299.033333
 21
288.900000
 31
0.0
  0
LINE
  5
324
100
AcDbEntity
  8
Ebene_1
 62
7
100
AcDbLine
 10
299.033333
 20
288.900000
 30
0.0
 11
311.566666
 21
288.900000
 31
0.0
  0
LINE
  5
325
100
AcDbEntity
  8
Ebene_1
 62
7
100
AcDbLine
 10
311.566666
 20
288.900000
 30
0.0
 11
311.566666
 21
293.000000
 31
0.0
  0
LINE
  5
326
100
AcDbEntity
  8
Ebene_1
 62
7
100
AcDbLine
 10
311.566666
 20
293.000000
 30
0.0
 11
321.766666
 21
293.000000
 31
0.0
  0
LINE
  5
327
100
AcDbEntity
  8
Ebene_1
 62
7
100
AcDbLine
 10
321.766666
 20
293.000000
 30
0.0
 11
321.766666
 21
288.900000
 31
0.0
  0
LINE
  5
328
100
AcDbEntity
  8
Ebene_1
 62
7
100
AcDbLine
 10
321.766666
 20
288.900000
 30
0.0
 11
334.400000
 21
288.900000
 31
0.0
  0
LINE
  5
329
100
AcDbEntity
  8
Ebene_1
 62
7
100
AcDbLine
 10
334.400000
 20
288.900000
 30
0.0
 11
334.400000
 21
281.500000
 31
0.0
  0
LINE
  5
32a
100
AcDbEntity
  8
Ebene_1
 62
7
100
AcDbLine
 10
334.400000
 20
281.500000
 30
0.0
 11
330.300000
 21
281.500000
 31
0.0
  0
LINE
  5
32b
100
AcDbEntity
  8
Ebene_1
 62
7
100
AcDbLine
 10
330.300000
 20
281.500000
 30
0.0
 11
330.300000
 21
271.700000
 31
0.0
  0
LINE
  5
32c
100
AcDbEntity
  8
Ebene_1
 62
7
100
AcDbLine
 10
330.300000
 20
271.700000
 30
0.0
 11
334.400000
 21
271.700000
 31
0.0
  0
LINE
  5
32d
100
AcDbEntity
  8
Ebene_1
 62
7
100
AcDbLine
 10
334.400000
 20
271.700000
 30
0.0
 11
334.400000
 21
260.100000
 31
0.0
  0
LINE
  5
32e
100
AcDbEntity
  8
Ebene_1
 62
7
100
AcDbLine
 10
334.400000
 20
260.100000
 30
0.0
 11
330.300000
 21
260.100000
 31
0.0
  0
LINE
  5
32f
100
AcDbEntity
  8
Ebene_1
 62
7
100
AcDbLine
 10
330.300000
 20
260.100000
 30
0.0
 11
330.300000
 21
250.300000
 31
0.0
  0
LINE
  5
330
100
AcDbEntity
  8
Ebene_1
 62
7
100
AcDbLine
 10
330.300000
 20
250.300000
 30
0.0
 11
334.400000
 21
250.300000
 31
0.0
  0
LINE
  5
331
100
AcDbEntity
  8
Ebene_1
 62
7
100
AcDbLine
 10
334.400000
 20
250.300000
 30
0.0
 11
334.400000
 21
238.700000
 31
0.0
  0
LINE
  5
332
100
AcDbEntity
  8
Ebene_1
 62
7
100
AcDbLine
 10
334.400000
 20
238.700000
 30
0.0
 11
330.300000
 21
238.700000
 31
0.0
  0
LINE
  5
333
100
AcDbEntity
  8
Ebene_1
 62
7
100
AcDbLine
 10
330.300000
 20
238.700000
 30
0.0
 11
330.300000
 21
228.900000
 31
0.0
  0
LINE
  5
334
100
AcDbEntity
  8
Ebene_1
 62
7
100
AcDbLine
 10
330.300000
 20
228.900000
 30
0.0
 11
334.400000
 21
228.900000
 31
0.0
  0
LINE
  5
335
100
AcDbEntity
  8
Ebene_1
 62
7
100
AcDbLine
 10
334.400000
 20
228.900000
 30
0.0
 11
334.400000
 21
217.300000
 31
0.0
  0
LINE
  5
336
100
AcDbEntity
  8
Ebene_1
 62
7
100
AcDbLine
 10
334.400000
 20
217.300000
 30
0.0
 11
330.300000
 21
217.300000
 31
0.0
  0
LINE
  5
337
100
AcDbEntity
  8
Ebene_1
 62
7
100
AcDbLine
 10
330.300000
 20
217.300000
 30
0.0
 11
330.300000
 21
207.500000
 31
0.0
  0
LINE
  5
338
100
AcDbEntity
  8
Ebene_1
 62
7
100
AcDbLine
 10
330.300000
 20
207.500000
 30
0.0
 11
334.400000
 21
207.500000
 31
0.0
  0
LINE
  5
339
100
AcDbEntity
  8
Ebene_1
 62
7
100
AcDbLine
 10
334.400000
 20
207.500000
 30
0.0
 11
334.400000
 21
195.900000
 31
0.0
  0
LINE
  5
33a
100
AcDbEntity
  8
Ebene_1
 62
7
100
AcDbLine
 10
334.400000
 20
195.900000
 30
0.0
 11
330.300000
 21
195.900000
 31
0.0
  0
LINE
  5
33b
100
AcDbEntity
  8
Ebene_1
 62
7
100
AcDbLine
 10
330.300000
 20
195.900000
 30
0.0
 11
330.300000
 21
186.100000
 31
0.0
  0
LINE
  5
33c
100
AcDbEntity
  8
Ebene_1
 62
7
100
AcDbLine
 10
330.300000
 20
186.100000
 30
0.0
 11
334.400000
 21
186.100000
 31
0.0
  0
LINE
  5
33d
100
AcDbEntity
  8
Ebene_1
 62
7
100
AcDbLine
 10
334.400000
 20
186.100000
 30
0.0
 11
334.400000
 21
174.500000
 31
0.0
  0
LINE
  5
33e
100
AcDbEntity
  8
Ebene_1
 62
7
100
AcDbLine
 10
334.400000
 20
174.500000
 30
0.0
 11
330.300000
 21
174.500000
 31
0.0
  0
LINE
  5
33f
100
AcDbEntity
  8
Ebene_1
 62
7
100
AcDbLine
 10
330.300000
 20
174.500000
 30
0.0
 11
330.300000
 21
164.700000
 31
0.0
  0
LINE
  5
340
100
AcDbEntity
  8
Ebene_1
 62
7
100
AcDbLine
 10
330.300000
 20
164.700000
 30
0.0
 11
334.400000
 21
164.700000
 31
0.0
  0
LINE
  5
341
100
AcDbEntity
  8
Ebene_1
 62
7
100
AcDbLine
 10
334.400000
 20
164.700000
 30
0.0
 11
334.400000
 21
153.100000
 31
0.0
  0
LINE
  5
342
100
AcDbEntity
  8
Ebene_1
 62
7
100
AcDbLine
 10
334.400000
 20
153.100000
 30
0.0
 11
330.300000
 21
153.100000
 31
0.0
  0
LINE
  5
343
100
AcDbEntity
  8
Ebene_1
 62
7
100
AcDbLine
 10
330.300000
 20
153.100000
 30
0.0
 11
330.300000
 21
143.300000
 31
0.0
  0
LINE
  5
344
100
AcDbEntity
  8
Ebene_1
 62
7
100
AcDbLine
 10
330.300000
 20
143.300000
 30
0.0
 11
334.400000
 21
143.300000
 31
0.0
  0
LINE
  5
345
100
AcDbEntity
  8
Ebene_1
 62
7
100
AcDbLine
 10
334.400000
 20
143.300000
 30
0.0
 11
334.400000
 21
131.700000
 31
0.0
  0
LINE
  5
346
100
AcDbEntity
  8
Ebene_1
 62
7
100
AcDbLine
 10
334.400000
 20
131.700000
 30
0.0
 11
330.300000
 21
131.700000
 31
0.0
  0
LINE
  5
347
100
AcDbEntity
  8
Ebene_1
 62
7
100
AcDbLine
 10
330.300000
 20
131.700000
 30
0.0
 11
330.300000
 21
121.900000
 31
0.0
  0
LINE
  5
348
100
AcDbEntity
  8
Ebene_1
 62
7
100
AcDbLine
 10
330.300000
 20
121.900000
 30
0.0
 11
334.400000
 21
121.900000
 31
0.0
  0
LINE
  5
349
100
AcDbEntity
  8
Ebene_1
 62
7
100
AcDbLine
 10
334.400000
 20
121.900000
 30
0.0
 11
334.400000
 21
110.300000
 31
0.0
  0
LINE
  5
34a
100
AcDbEntity
  8
Ebene_1
 62
7
100
AcDbLine
 10
334.400000
 20
110.300000
 30
0.0
 11
330.300000
 21
110.300000
 31
0.0
  0
LINE
  5
34b
100
AcDbEntity
  8
Ebene_1
 62
7
100
AcDbLine
 10
330.300000
 20
110.300000
 30
0.0
 11
330.300000
 21
100.500000
 31
0.0
  0
LINE
  5
34c
100
AcDbEntity
  8
Ebene_1
 62
7
100
AcDbLine
 10
330.300000
 20
100.500000
 30
0.0
 11
334.400000
 21
100.500000
 31
0.0
  0
LINE
  5
34d
100
AcDbEntity
  8
Ebene_1
 62
7
100
AcDbLine
 10
334.400000
 20
100.500000
 30
0.0
 11
334.400000
 21
88.900000
 31
0.0
  0
LINE
  5
34e
100
AcDbEntity
  8
Ebene_1
 62
7
100
AcDbLine
 10
334.400000
 20
88.900000
 30
0.0
 11
330.300000
 21
88.900000
 31
0.0
  0
LINE
  5
34f
100
AcDbEntity
  8
Ebene_1
 62
7
100
AcDbLine
 10
330.300000
 20
88.900000
 30
0.0
 11
330.300000
 21
79.100000
 31
0.0
  0
LINE
  5
350
100
AcDbEntity
  8
Ebene_1
 62
7
100
AcDbLine
 10
330.300000
 20
79.100000
 30
0.0
 11
334.400000
 21
79.100000
 31
0.0
  0
LINE
  5
351
100
AcDbEntity
  8
Ebene_1
 62
7
100
AcDbLine
 10
334.400000
 20
79.100000
 30
0.0
 11
334.400000
 21
67.500000
 31
0.0
  0
LINE
  5
352
100
AcDbEntity
  8
Ebene_1
 62
7
100
AcDbLine
 10
334.400000
 20
67.500000
 30
0.0
 11
330.300000
 21
67.500000
 31
0.0
  0
LINE
  5
353
100
AcDbEntity
  8
Ebene_1
 62
7
100
AcDbLine
 10
330.300000
 20
67.500000
 30
0.0
 11
330.300000
 21
57.700000
 31
0.0
  0
LINE
  5
354
100
AcDbEntity
  8
Ebene_1
 62
7
100
AcDbLine
 10
330.300000
 20
57.700000
 30
0.0
 11
334.400000
 21
57.700000
 31
0.0
  0
LINE
  5
355
100
AcDbEntity
  8
Ebene_1
 62
7
100
AcDbLine
 10
334.400000
 20
57.700000
 30
0.0
 11
334.400000
 21
46.100000
 31
0.0
  0
LINE
  5
356
100
AcDbEntity
  8
Ebene_1
 62
7
100
AcDbLine
 10
334.400000
 20
46.100000
 30
0.0
 11
330.300000
 21
46.100000
 31
0.0
  0
LINE
  5
357
100
AcDbEntity
  8
Ebene_1
 62
7
100
AcDbLine
 10
330.300000
 20
46.100000
 30
0.0
 11
330.300000
 21
36.300000
 31
0.0
  0
LINE
  5
358
100
AcDbEntity
  8
Ebene_1
 62
7
100
AcDbLine
 10
330.300000
 20
36.300000
 30
0.0
 11
334.400000
 21
36.300000
 31
0.0
  0
LINE
  5
359
100
AcDbEntity
  8
Ebene_1
 62
7
100
AcDbLine
 10
334.400000
 20
36.300000
 30
0.0
 11
334.400000
 21
28.900000
 31
0.0
  0
LINE
  5
35a
100
AcDbEntity
  8
Ebene_1
 62
7
100
AcDbLine
 10
334.400000
 20
28.900000
 30
0.0
 11
321.766666
 21
28.900000
 31
0.0
  0
LINE
  5
35b
100
AcDbEntity
  8
Ebene_1
 62
7
100
AcDbLine
 10
321.766666
 20
28.900000
 30
0.0
 11
321.766666
 21
24.800000
 31
0.0
  0
LINE
  5
35c
100
AcDbEntity
  8
Ebene_1
 62
7
100
AcDbLine
 10
321.766666
 20
24.800000
 30
0.0
 11
311.566666
 21
24.800000
 31
0.0
  0
LINE
  5
35d
100
AcDbEntity
  8
Ebene_1
 62
7
100
AcDbLine
 10
311.566666
 20
24.800000
 30
0.0
 11
311.566666
 21
28.900000
 31
0.0
  0
LINE
  5
35e
100
AcDbEntity
  8
Ebene_1
 62
7
100
AcDbLine
 10
311.566666
 20
28.900000
 30
0.0
 11
299.033333
 21
28.900000
 31
0.0
  0
LINE
  5
35f
100
AcDbEntity
  8
Ebene_1
 62
7
100
AcDbLine
 10
299.033333
 20
28.900000
 30
0.0
 11
299.033333
 21
24.800000
 31
0.0
  0
LINE
  5
360
100
AcDbEntity
  8
Ebene_1
 62
7
100
AcDbLine
 10
299.033333
 20
24.800000
 30
0.0
 11
288.833333
 21
24.800000
 31
0.0
  0
LINE
  5
361
100
AcDbEntity
  8
Ebene_1
 62
7
100
AcDbLine
 10
288.833333
 20
24.800000
 30
0.0
 11
288.833333
 21
28.900000
 31
0.0
  0
LINE
  5
362
100
AcDbEntity
  8
Ebene_1
 62
7
100
AcDbLine
 10
288.833333
 20
28.900000
 30
0.0
 11
276.200000
 21
28.900000
 31
0.0
  0
LINE
  5
363
100
AcDbEntity
  8
Ebene_1
 62
7
100
AcDbLine
 10
276.200000
 20
28.900000
 30
0.0
 11
276.200000
 21
36.300000
 31
0.0
  0
LINE
  5
364
100
AcDbEntity
  8
Ebene_1
 62
7
100
AcDbLine
 10
276.200000
 20
36.300000
 30
0.0
 11
280.300000
 21
36.300000
 31
0.0
  0
LINE
  5
365
100
AcDbEntity
  8
Ebene_1
 62
7
100
AcDbLine
 10
280.300000
 20
36.300000
 30
0.0
 11
280.300000
 21
46.100000
 31
0.0
  0
LINE
  5
366
100
AcDbEntity
  8
Ebene_1
 62
7
100
AcDbLine
 10
280.300000
 20
46.100000
 30
0.0
 11
276.200000
 21
46.100000
 31
0.0
  0
LINE
  5
367
100
AcDbEntity
  8
Ebene_1
 62
7
100
AcDbLine
 10
276.200000
 20
46.100000
 30
0.0
 11
276.200000
 21
57.700000
 31
0.0
  0
LINE
  5
368
100
AcDbEntity
  8
Ebene_1
 62
7
100
AcDbLine
 10
276.200000
 20
57.700000
 30
0.0
 11
280.300000
 21
57.700000
 31
0.0
  0
LINE
  5
369
100
AcDbEntity
  8
Ebene_1
 62
7
100
AcDbLine
 10
280.300000
 20
57.700000
 30
0.0
 11
280.300000
 21
67.500000
 31
0.0
  0
LINE
  5
36a
100
AcDbEntity
  8
Ebene_1
 62
7
100
AcDbLine
 10
280.300000
 20
67.500000
 30
0.0
 11
276.200000
 21
67.500000
 31
0.0
  0
LINE
  5
36b
100
AcDbEntity
  8
Ebene_1
 62
7
100
AcDbLine
 10
276.200000
 20
67.500000
 30
0.0
 11
276.200000
 21
79.100000
 31
0.0
  0
LINE
  5
36c
100
AcDbEntity
  8
Ebene_1
 62
7
100
AcDbLine
 10
276.200000
 20
79.100000
 30
0.0
 11
280.300000
 21
79.100000
 31
0.0
  0
LINE
  5
36d
100
AcDbEntity
  8
Ebene_1
 62
7
100
AcDbLine
 10
280.300000
 20
79.100000
 30
0.0
 11
280.300000
 21
88.900000
 31
0.0
  0
LINE
  5
36e
100
AcDbEntity
  8
Ebene_1
 62
7
100
AcDbLine
 10
280.300000
 20
88.900000
 30
0.0
 11
276.200000
 21
88.900000
 31
0.0
  0
LINE
  5
36f
100
AcDbEntity
  8
Ebene_1
 62
7
100
AcDbLine
 10
276.200000
 20
88.900000
 30
0.0
 11
276.200000
 21
100.500000
 31
0.0
  0
LINE
  5
370
100
AcDbEntity
  8
Ebene_1
 62
7
100
AcDbLine
 10
276.200000
 20
100.500000
 30
0.0
 11
280.300000
 21
100.500000
 31
0.0
  0
LINE
  5
371
100
AcDbEntity
  8
Ebene_1
 62
7
100
AcDbLine
 10
280.300000
 20
100.500000
 30
0.0
 11
280.300000
 21
110.300000
 31
0.0
  0
LINE
  5
372
100
AcDbEntity
  8
Ebene_1
 62
7
100
AcDbLine
 10
280.300000
 20
110.300000
 30
0.0
 11
276.200000
 21
110.300000
 31
0.0
  0
LINE
  5
373
100
AcDbEntity
  8
Ebene_1
 62
7
100
AcDbLine
 10
276.200000
 20
110.300000
 30
0.0
 11
276.200000
 21
121.900000
 31
0.0
  0
LINE
  5
374
100
AcDbEntity
  8
Ebene_1
 62
7
100
AcDbLine
 10
276.200000
 20
121.900000
 30
0.0
 11
280.300000
 21
121.900000
 31
0.0
  0
LINE
  5
375
100
AcDbEntity
  8
Ebene_1
 62
7
100
AcDbLine
 10
280.300000
 20
121.900000
 30
0.0
 11
280.300000
 21
131.700000
 31
0.0
  0
LINE
  5
376
100
AcDbEntity
  8
Ebene_1
 62
7
100
AcDbLine
 10
280.300000
 20
131.700000
 30
0.0
 11
276.200000
 21
131.700000
 31
0.0
  0
LINE
  5
377
100
AcDbEntity
  8
Ebene_1
 62
7
100
AcDbLine
 10
276.200000
 20
131.700000
 30
0.0
 11
276.200000
 21
143.300000
 31
0.0
  0
LINE
  5
378
100
AcDbEntity
  8
Ebene_1
 62
7
100
AcDbLine
 10
276.200000
 20
143.300000
 30
0.0
 11
280.300000
 21
143.300000
 31
0.0
  0
LINE
  5
379
100
AcDbEntity
  8
Ebene_1
 62
7
100
AcDbLine
 10
280.300000
 20
143.300000
 30
0.0
 11
280.300000
 21
153.100000
 31
0.0
  0
LINE
  5
37a
100
AcDbEntity
  8
Ebene_1
 62
7
100
AcDbLine
 10
280.300000
 20
153.100000
 30
0.0
 11
276.200000
 21
153.100000
 31
0.0
  0
LINE
  5
37b
100
AcDbEntity
  8
Ebene_1
 62
7
100
AcDbLine
 10
276.200000
 20
153.100000
 30
0.0
 11
276.200000
 21
164.700000
 31
0.0
  0
LINE
  5
37c
100
AcDbEntity
  8
Ebene_1
 62
7
100
AcDbLine
 10
276.200000
 20
164.700000
 30
0.0
 11
280.300000
 21
164.700000
 31
0.0
  0
LINE
  5
37d
100
AcDbEntity
  8
Ebene_1
 62
7
100
AcDbLine
 10
280.300000
 20
164.700000
 30
0.0
 11
280.300000
 21
174.500000
 31
0.0
  0
LINE
  5
37e
100
AcDbEntity
  8
Ebene_1
 62
7
100
AcDbLine
 10
280.300000
 20
174.500000
 30
0.0
 11
276.200000
 21
174.500000
 31
0.0
  0
LINE
  5
37f
100
AcDbEntity
  8
Ebene_1
 62
7
100
AcDbLine
 10
276.200000
 20
174.500000
 30
0.0
 11
276.200000
 21
186.100000
 31
0.0
  0
LINE
  5
380
100
AcDbEntity
  8
Ebene_1
 62
7
100
AcDbLine
 10
276.200000
 20
186.100000
 30
0.0
 11
280.300000
 21
186.100000
 31
0.0
  0
LINE
  5
381
100
AcDbEntity
  8
Ebene_1
 62
7
100
AcDbLine
 10
280.300000
 20
186.100000
 30
0.0
 11
280.300000
 21
195.900000
 31
0.0
  0
LINE
  5
382
100
AcDbEntity
  8
Ebene_1
 62
7
100
AcDbLine
 10
280.300000
 20
195.900000
 30
0.0
 11
276.200000
 21
195.900000
 31
0.0
  0
LINE
  5
383
100
AcDbEntity
  8
Ebene_1
 62
7
100
AcDbLine
 10
276.200000
 20
195.900000
 30
0.0
 11
276.200000
 21
207.500000
 31
0.0
  0
LINE
  5
384
100
AcDbEntity
  8
Ebene_1
 62
7
100
AcDbLine
 10
276.200000
 20
207.500000
 30
0.0
 11
280.300000
 21
207.500000
 31
0.0
  0
LINE
  5
385
100
AcDbEntity
  8
Ebene_1
 62
7
100
AcDbLine
 10
280.300000
 20
207.500000
 30
0.0
 11
280.300000
 21
217.300000
 31
0.0
  0
LINE
  5
386
100
AcDbEntity
  8
Ebene_1
 62
7
100
AcDbLine
 10
280.300000
 20
217.300000
 30
0.0
 11
276.200000
 21
217.300000
 31
0.0
  0
LINE
  5
387
100
AcDbEntity
  8
Ebene_1
 62
7
100
AcDbLine
 10
276.200000
 20
217.300000
 30
0.0
 11
276.200000
 21
228.900000
 31
0.0
  0
LINE
  5
388
100
AcDbEntity
  8
Ebene_1
 62
7
100
AcDbLine
 10
276.200000
 20
228.900000
 30
0.0
 11
280.300000
 21
228.900000
 31
0.0
  0
LINE
  5
389
100
AcDbEntity
  8
Ebene_1
 62
7
100
AcDbLine
 10
280.300000
 20
228.900000
 30
0.0
 11
280.300000
 21
238.700000
 31
0.0
  0
LINE
  5
38a
100
AcDbEntity
  8
Ebene_1
 62
7
100
AcDbLine
 10
280.300000
 20
238.700000
 30
0.0
 11
276.200000
 21
238.700000
 31
0.0
  0
LINE
  5
38b
100
AcDbEntity
  8
Ebene_1
 62
7
100
AcDbLine
 10
276.200000
 20
238.700000
 30
0.0
 11
276.200000
 21
250.300000
 31
0.0
  0
LINE
  5
38c
100
AcDbEntity
  8
Ebene_1
 62
7
100
AcDbLine
 10
276.200000
 20
250.300000
 30
0.0
 11
280.300000
 21
250.300000
 31
0.0
  0
LINE
  5
38d
100
AcDbEntity
  8
Ebene_1
 62
7
100
AcDbLine
 10
280.300000
 20
250.300000
 30
0.0
 11
280.300000
 21
260.100000
 31
0.0
  0
LINE
  5
38e
100
AcDbEntity
  8
Ebene_1
 62
7
100
AcDbLine
 10
280.300000
 20
260.100000
 30
0.0
 11
276.200000
 21
260.100000
 31
0.0
  0
LINE
  5
38f
100
AcDbEntity
  8
Ebene_1
 62
7
100
AcDbLine
 10
276.200000
 20
260.100000
 30
0.0
 11
276.200000
 21
271.700000
 31
0.0
  0
LINE
  5
390
100
AcDbEntity
  8
Ebene_1
 62
7
100
AcDbLine
 10
276.200000
 20
271.700000
 30
0.0
 11
280.300000
 21
271.700000
 31
0.0
  0
LINE
  5
391
100
AcDbEntity
  8
Ebene_1
 62
7
100
AcDbLine
 10
280.300000
 20
271.700000
 30
0.0
 11
280.300000
 21
281.500000
 31
0.0
  0
LINE
  5
392
100
AcDbEntity
  8
Ebene_1
 62
7
100
AcDbLine
 10
280.300000
 20
281.500000
 30
0.0
 11
276.200000
 21
281.500000
 31
0.0
  0
LINE
  5
393
100
AcDbEntity
  8
Ebene_1
 62
7
100
AcDbLine
 10
276.200000
 20
281.500000
 30
0.0
 11
276.200000
 21
288.900000
 31
0.0
  0
ENDSEC
  0
SECTION
  2
OBJECTS
  0
DICTIONARY
  5
C
330
0
100
AcDbDictionary
  3
ACAD_GROUP
350
D
  3
ACAD_MLINESTYLE
350
17
  0
DICTIONARY
  5
D
330
C
100
AcDbDictionary
  0
DICTIONARY
  5
1A
330
C
100
AcDbDictionary
  0
DICTIONARY
  5
17
330
C
100
AcDbDictionary
  3
STANDARD
350
18
  0
DICTIONARY
  5
19
330
C
100
AcDbDictionary
  0
ENDSEC
  0
EOF
