<?xml version="1.0" encoding="UTF-8" standalone="no"?>
<!-- Created with Inkscape (http://www.inkscape.org/) -->

<svg
   xmlns:dc="http://purl.org/dc/elements/1.1/"
   xmlns:cc="http://creativecommons.org/ns#"
   xmlns:rdf="http://www.w3.org/1999/02/22-rdf-syntax-ns#"
   xmlns:svg="http://www.w3.org/2000/svg"
   xmlns="http://www.w3.org/2000/svg"
   xmlns:sodipodi="http://sodipodi.sourceforge.net/DTD/sodipodi-0.dtd"
   xmlns:inkscape="http://www.inkscape.org/namespaces/inkscape"
   width="210mm"
   height="297mm"
   viewBox="0 0 210 297"
   version="1.1"
   id="svg8"
   inkscape:version="0.92.1 r15371"
   sodipodi:docname="box.svg">
  <sodipodi:namedview
     id="base"
     pagecolor="#ffffff"
     bordercolor="#666666"
     borderopacity="1.0"
     inkscape:pageopacity="0.0"
     inkscape:pageshadow="2"
     inkscape:zoom="0.175"
     inkscape:cx="-1873.4933"
     inkscape:cy="-688.27521"
     inkscape:document-units="mm"
     inkscape:current-layer="layer1"
     showgrid="false"
     inkscape:window-width="1920"
     inkscape:window-height="1017"
     inkscape:window-x="-8"
     inkscape:window-y="-8"
     inkscape:window-maximized="1" />
  <defs
     id="defs2" />
  <metadata
     id="metadata5">
    <rdf:RDF>
      <cc:Work
         rdf:about="">
        <dc:format>image/svg+xml</dc:format>
        <dc:type
           rdf:resource="http://purl.org/dc/dcmitype/StillImage" />
        <dc:title></dc:title>
      </cc:Work>
    </rdf:RDF>
  </metadata>
  <g
     id="layer1"
     inkscape:groupmode="layer"
     inkscape:label="Ebene 1">
    <path
       id="path4746"
       inkscape:label="part"
       style="stroke:#000000;fill:none"
       d="M 276.199999809,552.499999523 L 288.833333079,552.499999523 L 288.833333079,548.399999619 L 299.033333079,548.399999619 L 299.033333079,552.499999523 L 311.566666349,552.499999523 L 311.566666349,548.399999619 L 321.766666348,548.399999619 L 321.766666348,552.499999523 L 334.399999619,552.499999523 " />
    <path
       id="path4748"
       inkscape:label="part"
       style="stroke:#000000;fill:none"
       d="M 334.399999619,552.499999523 L 334.399999619,559.899999603 L 330.299999714,559.899999603 L 330.299999714,569.699999604 L 334.399999619,569.699999604 L 334.399999619,581.299999589 L 330.299999714,581.299999589 L 330.299999714,591.09999959 L 334.399999619,591.09999959 L 334.399999619,602.699999574 L 330.299999714,602.699999574 L 330.299999714,612.499999575 L 334.399999619,612.499999575 L 334.399999619,624.099999559 L 330.299999714,624.099999559 L 330.299999714,633.89999956 L 334.399999619,633.89999956 L 334.399999619,645.499999545 L 330.299999714,645.499999545 L 330.299999714,655.299999546 L 334.399999619,655.299999546 L 334.399999619,666.89999953 L 330.299999714,666.89999953 L 330.299999714,676.699999531 L 334.399999619,676.699999531 L 334.399999619,688.299999515 L 330.299999714,688.299999515 L 330.299999714,698.099999516 L 334.399999619,698.099999516 L 334.399999619,709.699999501 L 330.299999714,709.699999501 L 330.299999714,719.499999502 L 334.399999619,719.499999502 L 334.399999619,731.099999486 L 330.299999714,731.099999486 L 330.299999714,740.899999487 L 334.399999619,740.899999487 L 334.399999619,752.499999471 L 330.299999714,752.499999471 L 330.299999714,762.299999472 L 334.399999619,762.299999472 L 334.399999619,773.899999457 L 330.299999714,773.899999457 L 330.299999714,783.699999457 L 334.399999619,783.699999457 L 334.399999619,795.299999442 L 330.299999714,795.299999442 L 330.299999714,805.099999443 L 334.399999619,805.099999443 L 334.399999619,812.499999523 " />
    <path
       id="path4750"
       inkscape:label="part"
       style="stroke:#000000;fill:none"
       d="M 334.399999619,812.499999523 L 321.766666348,812.499999523 L 321.766666348,816.599999428 L 311.566666349,816.599999428 L 311.566666349,812.499999523 L 299.033333079,812.499999523 L 299.033333079,816.599999428 L 288.833333079,816.599999428 L 288.833333079,812.499999523 L 276.199999809,812.499999523 " />
    <path
       id="path4752"
       inkscape:label="part"
       style="stroke:#000000;fill:none"
       d="M 276.199999809,812.499999523 L 276.199999809,805.099999443 L 280.299999714,805.099999443 L 280.299999714,795.299999442 L 276.199999809,795.299999442 L 276.199999809,783.699999457 L 280.299999714,783.699999457 L 280.299999714,773.899999457 L 276.199999809,773.899999457 L 276.199999809,762.299999472 L 280.299999714,762.299999472 L 280.299999714,752.499999471 L 276.199999809,752.499999471 L 276.199999809,740.899999487 L 280.299999714,740.899999487 L 280.299999714,731.099999486 L 276.199999809,731.099999486 L 276.199999809,719.499999502 L 280.299999714,719.499999502 L 280.299999714,709.699999501 L 276.199999809,709.699999501 L 276.199999809,698.099999516 L 280.299999714,698.099999516 L 280.299999714,688.299999515 L 276.199999809,688.299999515 L 276.199999809,676.699999531 L 280.299999714,676.699999531 L 280.299999714,666.89999953 L 276.199999809,666.89999953 L 276.199999809,655.299999546 L 280.299999714,655.299999546 L 280.299999714,645.499999545 L 276.199999809,645.499999545 L 276.199999809,633.89999956 L 280.299999714,633.89999956 L 280.299999714,624.099999559 L 276.199999809,624.099999559 L 276.199999809,612.499999575 L 280.299999714,612.499999575 L 280.299999714,602.699999574 L 276.199999809,602.699999574 L 276.199999809,591.09999959 L 280.299999714,591.09999959 L 280.299999714,581.299999589 L 276.199999809,581.299999589 L 276.199999809,569.699999604 L 280.299999714,569.699999604 L 280.299999714,559.899999603 L 276.199999809,559.899999603 L 276.199999809,552.499999523 " />
    <path
       id="path4762"
       inkscape:label="part"
       style="stroke:#000000;fill:none"
       d="M 276.199999809,276.199999809 L 289.033333079,276.199999809 L 289.033333079,280.299999714 L 298.833333079,280.299999714 L 298.833333079,276.199999809 L 311.766666348,276.199999809 L 311.766666348,280.299999714 L 321.566666349,280.299999714 L 321.566666349,276.199999809 L 334.399999619,276.199999809 " />
    <path
       id="path4764"
       inkscape:label="part"
       style="stroke:#000000;fill:none"
       d="M 334.399999619,276.199999809 L 334.399999619,287.699999794 L 330.299999714,287.699999794 L 330.299999714,297.499999795 L 334.399999619,297.499999795 L 334.399999619,309.09999978 L 330.299999714,309.09999978 L 330.299999714,318.89999978 L 334.399999619,318.89999978 L 334.399999619,330.499999765 L 330.299999714,330.499999765 L 330.299999714,340.299999766 L 334.399999619,340.299999766 L 334.399999619,351.89999975 L 330.299999714,351.89999975 L 330.299999714,361.699999751 L 334.399999619,361.699999751 L 334.399999619,373.299999736 L 330.299999714,373.299999736 L 330.299999714,383.099999736 L 334.399999619,383.099999736 L 334.399999619,394.699999721 L 330.299999714,394.699999721 L 330.299999714,404.499999722 L 334.399999619,404.499999722 L 334.399999619,416.099999706 L 330.299999714,416.099999706 L 330.299999714,425.899999707 L 334.399999619,425.899999707 L 334.399999619,437.499999692 L 330.299999714,437.499999692 L 330.299999714,447.299999692 L 334.399999619,447.299999692 L 334.399999619,458.899999677 L 330.299999714,458.899999677 L 330.299999714,468.699999678 L 334.399999619,468.699999678 L 334.399999619,480.299999662 L 330.299999714,480.299999662 L 330.299999714,490.099999663 L 334.399999619,490.099999663 L 334.399999619,501.699999647 L 330.299999714,501.699999647 L 330.299999714,511.499999648 L 334.399999619,511.499999648 L 334.399999619,523.099999633 L 330.299999714,523.099999633 L 330.299999714,532.899999634 L 334.399999619,532.899999634 L 334.399999619,544.399999619 " />
    <path
       id="path4766"
       inkscape:label="part"
       style="stroke:#000000;fill:none"
       d="M 334.399999619,544.399999619 L 321.566666349,544.399999619 L 321.566666349,540.299999714 L 311.766666348,540.299999714 L 311.766666348,544.399999619 L 298.833333079,544.399999619 L 298.833333079,540.299999714 L 289.033333079,540.299999714 L 289.033333079,544.399999619 L 276.199999809,544.399999619 " />
    <path
       id="path4768"
       inkscape:label="part"
       style="stroke:#000000;fill:none"
       d="M 276.199999809,544.399999619 L 276.199999809,532.899999634 L 280.299999714,532.899999634 L 280.299999714,523.099999633 L 276.199999809,523.099999633 L 276.199999809,511.499999648 L 280.299999714,511.499999648 L 280.299999714,501.699999647 L 276.199999809,501.699999647 L 276.199999809,490.099999663 L 280.299999714,490.099999663 L 280.299999714,480.299999662 L 276.199999809,480.299999662 L 276.199999809,468.699999678 L 280.299999714,468.699999678 L 280.299999714,458.899999677 L 276.199999809,458.899999677 L 276.199999809,447.299999692 L 280.299999714,447.299999692 L 280.299999714,437.499999692 L 276.199999809,437.499999692 L 276.199999809,425.899999707 L 280.299999714,425.899999707 L 280.299999714,416.099999706 L 276.199999809,416.099999706 L 276.199999809,404.499999722 L 280.299999714,404.499999722 L 280.299999714,394.699999721 L 276.199999809,394.699999721 L 276.199999809,383.099999736 L 280.299999714,383.099999736 L 280.299999714,373.299999736 L 276.199999809,373.299999736 L 276.199999809,361.699999751 L 280.299999714,361.699999751 L 280.299999714,351.89999975 L 276.199999809,351.89999975 L 276.199999809,340.299999766 L 280.299999714,340.299999766 L 280.299999714,330.499999765 L 276.199999809,330.499999765 L 276.199999809,318.89999978 L 280.299999714,318.89999978 L 280.299999714,309.09999978 L 276.199999809,309.09999978 L 276.199999809,297.499999795 L 280.299999714,297.499999795 L 280.299999714,287.699999794 L 276.199999809,287.699999794 L 276.199999809,276.199999809 " />
    <path
       id="path4770"
       inkscape:label="part"
       style="stroke:#000000;fill:none"
       d="M 342.499999523,280.299999714 L 349.699999604,280.299999714 L 349.699999604,276.199999809 L 359.899999603,276.199999809 L 359.899999603,280.299999714 L 371.09999959,280.299999714 L 371.09999959,276.199999809 L 381.299999589,276.199999809 L 381.299999589,280.299999714 L 392.499999575,280.299999714 L 392.499999575,276.199999809 L 402.699999574,276.199999809 L 402.699999574,280.299999714 L 413.89999956,280.299999714 L 413.89999956,276.199999809 L 424.099999559,276.199999809 L 424.099999559,280.299999714 L 435.299999546,280.299999714 L 435.299999546,276.199999809 L 445.499999545,276.199999809 L 445.499999545,280.299999714 L 456.699999531,280.299999714 L 456.699999531,276.199999809 L 466.89999953,276.199999809 L 466.89999953,280.299999714 L 478.099999516,280.299999714 L 478.099999516,276.199999809 L 488.299999515,276.199999809 L 488.299999515,280.299999714 L 499.499999502,280.299999714 L 499.499999502,276.199999809 L 509.699999501,276.199999809 L 509.699999501,280.299999714 L 520.899999487,280.299999714 L 520.899999487,276.199999809 L 531.099999486,276.199999809 L 531.099999486,280.299999714 L 542.299999472,280.299999714 L 542.299999472,276.199999809 L 552.499999471,276.199999809 L 552.499999471,280.299999714 L 563.699999457,280.299999714 L 563.699999457,276.199999809 L 573.899999457,276.199999809 L 573.899999457,280.299999714 L 585.099999443,280.299999714 L 585.099999443,276.199999809 L 595.299999442,276.199999809 L 595.299999442,280.299999714 L 602.499999523,280.299999714 " />
    <path
       id="path4772"
       inkscape:label="part"
       style="stroke:#000000;fill:none"
       d="M 602.499999523,280.299999714 L 602.499999523,287.499999795 L 606.599999428,287.499999795 L 606.599999428,297.699999794 L 602.499999523,297.699999794 L 602.499999523,308.89999978 L 606.599999428,308.89999978 L 606.599999428,319.09999978 L 602.499999523,319.09999978 L 602.499999523,330.299999766 L 606.599999428,330.299999766 L 606.599999428,340.499999765 L 602.499999523,340.499999765 L 602.499999523,351.699999751 L 606.599999428,351.699999751 L 606.599999428,361.89999975 L 602.499999523,361.89999975 L 602.499999523,373.099999736 L 606.599999428,373.099999736 L 606.599999428,383.299999736 L 602.499999523,383.299999736 L 602.499999523,394.499999722 L 606.599999428,394.499999722 L 606.599999428,404.699999721 L 602.499999523,404.699999721 L 602.499999523,415.899999707 L 606.599999428,415.899999707 L 606.599999428,426.099999706 L 602.499999523,426.099999706 L 602.499999523,437.299999692 L 606.599999428,437.299999692 L 606.599999428,447.499999692 L 602.499999523,447.499999692 L 602.499999523,458.699999678 L 606.599999428,458.699999678 L 606.599999428,468.899999677 L 602.499999523,468.899999677 L 602.499999523,480.099999663 L 606.599999428,480.099999663 L 606.599999428,490.299999662 L 602.499999523,490.299999662 L 602.499999523,501.499999648 L 606.599999428,501.499999648 L 606.599999428,511.699999647 L 602.499999523,511.699999647 L 602.499999523,522.899999634 L 606.599999428,522.899999634 L 606.599999428,533.099999633 L 602.499999523,533.099999633 L 602.499999523,540.299999714 " />
    <path
       id="path4774"
       inkscape:label="part"
       style="stroke:#000000;fill:none"
       d="M 602.499999523,540.299999714 L 595.299999442,540.299999714 L 595.299999442,544.399999619 L 585.099999443,544.399999619 L 585.099999443,540.299999714 L 573.899999457,540.299999714 L 573.899999457,544.399999619 L 563.699999457,544.399999619 L 563.699999457,540.299999714 L 552.499999471,540.299999714 L 552.499999471,544.399999619 L 542.299999472,544.399999619 L 542.299999472,540.299999714 L 531.099999486,540.299999714 L 531.099999486,544.399999619 L 520.899999487,544.399999619 L 520.899999487,540.299999714 L 509.699999501,540.299999714 L 509.699999501,544.399999619 L 499.499999502,544.399999619 L 499.499999502,540.299999714 L 488.299999515,540.299999714 L 488.299999515,544.399999619 L 478.099999516,544.399999619 L 478.099999516,540.299999714 L 466.89999953,540.299999714 L 466.89999953,544.399999619 L 456.699999531,544.399999619 L 456.699999531,540.299999714 L 445.499999545,540.299999714 L 445.499999545,544.399999619 L 435.299999546,544.399999619 L 435.299999546,540.299999714 L 424.099999559,540.299999714 L 424.099999559,544.399999619 L 413.89999956,544.399999619 L 413.89999956,540.299999714 L 402.699999574,540.299999714 L 402.699999574,544.399999619 L 392.499999575,544.399999619 L 392.499999575,540.299999714 L 381.299999589,540.299999714 L 381.299999589,544.399999619 L 371.09999959,544.399999619 L 371.09999959,540.299999714 L 359.899999603,540.299999714 L 359.899999603,544.399999619 L 349.699999604,544.399999619 L 349.699999604,540.299999714 L 342.499999523,540.299999714 " />
    <path
       id="path4776"
       inkscape:label="part"
       style="stroke:#000000;fill:none"
       d="M 342.499999523,540.299999714 L 342.499999523,533.099999633 L 338.399999619,533.099999633 L 338.399999619,522.899999634 L 342.499999523,522.899999634 L 342.499999523,511.699999647 L 338.399999619,511.699999647 L 338.399999619,501.499999648 L 342.499999523,501.499999648 L 342.499999523,490.299999662 L 338.399999619,490.299999662 L 338.399999619,480.099999663 L 342.499999523,480.099999663 L 342.499999523,468.899999677 L 338.399999619,468.899999677 L 338.399999619,458.699999678 L 342.499999523,458.699999678 L 342.499999523,447.499999692 L 338.399999619,447.499999692 L 338.399999619,437.299999692 L 342.499999523,437.299999692 L 342.499999523,426.099999706 L 338.399999619,426.099999706 L 338.399999619,415.899999707 L 342.499999523,415.899999707 L 342.499999523,404.699999721 L 338.399999619,404.699999721 L 338.399999619,394.499999722 L 342.499999523,394.499999722 L 342.499999523,383.299999736 L 338.399999619,383.299999736 L 338.399999619,373.099999736 L 342.499999523,373.099999736 L 342.499999523,361.89999975 L 338.399999619,361.89999975 L 338.399999619,351.699999751 L 342.499999523,351.699999751 L 342.499999523,340.499999765 L 338.399999619,340.499999765 L 338.399999619,330.299999766 L 342.499999523,330.299999766 L 342.499999523,319.09999978 L 338.399999619,319.09999978 L 338.399999619,308.89999978 L 342.499999523,308.89999978 L 342.499999523,297.699999794 L 338.399999619,297.699999794 L 338.399999619,287.499999795 L 342.499999523,287.499999795 L 342.499999523,280.299999714 " />
    <path
       id="path4778"
       inkscape:label="part"
       style="stroke:#000000;fill:none"
       d="M 610.599999428,276.199999809 L 623.433332697,276.199999809 L 623.433332697,280.299999714 L 633.233332698,280.299999714 L 633.233332698,276.199999809 L 646.166665967,276.199999809 L 646.166665967,280.299999714 L 655.966665968,280.299999714 L 655.966665968,276.199999809 L 668.799999237,276.199999809 " />
    <path
       id="path4780"
       inkscape:label="part"
       style="stroke:#000000;fill:none"
       d="M 668.799999237,276.199999809 L 668.799999237,287.699999794 L 664.699999332,287.699999794 L 664.699999332,297.499999795 L 668.799999237,297.499999795 L 668.799999237,309.09999978 L 664.699999332,309.09999978 L 664.699999332,318.89999978 L 668.799999237,318.89999978 L 668.799999237,330.499999765 L 664.699999332,330.499999765 L 664.699999332,340.299999766 L 668.799999237,340.299999766 L 668.799999237,351.89999975 L 664.699999332,351.89999975 L 664.699999332,361.699999751 L 668.799999237,361.699999751 L 668.799999237,373.299999736 L 664.699999332,373.299999736 L 664.699999332,383.099999736 L 668.799999237,383.099999736 L 668.799999237,394.699999721 L 664.699999332,394.699999721 L 664.699999332,404.499999722 L 668.799999237,404.499999722 L 668.799999237,416.099999706 L 664.699999332,416.099999706 L 664.699999332,425.899999707 L 668.799999237,425.899999707 L 668.799999237,437.499999692 L 664.699999332,437.499999692 L 664.699999332,447.299999692 L 668.799999237,447.299999692 L 668.799999237,458.899999677 L 664.699999332,458.899999677 L 664.699999332,468.699999678 L 668.799999237,468.699999678 L 668.799999237,480.299999662 L 664.699999332,480.299999662 L 664.699999332,490.099999663 L 668.799999237,490.099999663 L 668.799999237,501.699999647 L 664.699999332,501.699999647 L 664.699999332,511.499999648 L 668.799999237,511.499999648 L 668.799999237,523.099999633 L 664.699999332,523.099999633 L 664.699999332,532.899999634 L 668.799999237,532.899999634 L 668.799999237,544.399999619 " />
    <path
       id="path4782"
       inkscape:label="part"
       style="stroke:#000000;fill:none"
       d="M 668.799999237,544.399999619 L 655.966665968,544.399999619 L 655.966665968,540.299999714 L 646.166665967,540.299999714 L 646.166665967,544.399999619 L 633.233332698,544.399999619 L 633.233332698,540.299999714 L 623.433332697,540.299999714 L 623.433332697,544.399999619 L 610.599999428,544.399999619 " />
    <path
       id="path4784"
       inkscape:label="part"
       style="stroke:#000000;fill:none"
       d="M 610.599999428,544.399999619 L 610.599999428,532.899999634 L 614.699999332,532.899999634 L 614.699999332,523.099999633 L 610.599999428,523.099999633 L 610.599999428,511.499999648 L 614.699999332,511.499999648 L 614.699999332,501.699999647 L 610.599999428,501.699999647 L 610.599999428,490.099999663 L 614.699999332,490.099999663 L 614.699999332,480.299999662 L 610.599999428,480.299999662 L 610.599999428,468.699999678 L 614.699999332,468.699999678 L 614.699999332,458.899999677 L 610.599999428,458.899999677 L 610.599999428,447.299999692 L 614.699999332,447.299999692 L 614.699999332,437.499999692 L 610.599999428,437.499999692 L 610.599999428,425.899999707 L 614.699999332,425.899999707 L 614.699999332,416.099999706 L 610.599999428,416.099999706 L 610.599999428,404.499999722 L 614.699999332,404.499999722 L 614.699999332,394.699999721 L 610.599999428,394.699999721 L 610.599999428,383.099999736 L 614.699999332,383.099999736 L 614.699999332,373.299999736 L 610.599999428,373.299999736 L 610.599999428,361.699999751 L 614.699999332,361.699999751 L 614.699999332,351.89999975 L 610.599999428,351.89999975 L 610.599999428,340.299999766 L 614.699999332,340.299999766 L 614.699999332,330.499999765 L 610.599999428,330.499999765 L 610.599999428,318.89999978 L 614.699999332,318.89999978 L 614.699999332,309.09999978 L 610.599999428,309.09999978 L 610.599999428,297.499999795 L 614.699999332,297.499999795 L 614.699999332,287.699999794 L 610.599999428,287.699999794 L 610.599999428,276.199999809 " />
    <path
       id="path4786"
       inkscape:label="part"
       style="stroke:#000000;fill:none"
       d="M 276.199999809,8.09999990463 L 288.833333079,8.09999990463 L 288.833333079,4.0 L 299.033333079,4.0 L 299.033333079,8.09999990463 L 311.566666349,8.09999990463 L 311.566666349,4.0 L 321.766666348,4.0 L 321.766666348,8.09999990463 L 334.399999619,8.09999990463 " />
    <path
       id="path4788"
       inkscape:label="part"
       style="stroke:#000000;fill:none"
       d="M 334.399999619,8.09999990463 L 334.399999619,15.499999985 L 330.299999714,15.499999985 L 330.299999714,25.2999999857 L 334.399999619,25.2999999857 L 334.399999619,36.8999999703 L 330.299999714,36.8999999703 L 330.299999714,46.699999971 L 334.399999619,46.699999971 L 334.399999619,58.2999999556 L 330.299999714,58.2999999556 L 330.299999714,68.0999999564 L 334.399999619,68.0999999564 L 334.399999619,79.6999999409 L 330.299999714,79.6999999409 L 330.299999714,89.4999999417 L 334.399999619,89.4999999417 L 334.399999619,101.099999926 L 330.299999714,101.099999926 L 330.299999714,110.899999927 L 334.399999619,110.899999927 L 334.399999619,122.499999912 L 330.299999714,122.499999912 L 330.299999714,132.299999912 L 334.399999619,132.299999912 L 334.399999619,143.899999897 L 330.299999714,143.899999897 L 330.299999714,153.699999898 L 334.399999619,153.699999898 L 334.399999619,165.299999882 L 330.299999714,165.299999882 L 330.299999714,175.099999883 L 334.399999619,175.099999883 L 334.399999619,186.699999868 L 330.299999714,186.699999868 L 330.299999714,196.499999868 L 334.399999619,196.499999868 L 334.399999619,208.099999853 L 330.299999714,208.099999853 L 330.299999714,217.899999854 L 334.399999619,217.899999854 L 334.399999619,229.499999838 L 330.299999714,229.499999838 L 330.299999714,239.299999839 L 334.399999619,239.299999839 L 334.399999619,250.899999824 L 330.299999714,250.899999824 L 330.299999714,260.699999824 L 334.399999619,260.699999824 L 334.399999619,268.099999905 " />
    <path
       id="path4790"
       inkscape:label="part"
       style="stroke:#000000;fill:none"
       d="M 334.399999619,268.099999905 L 321.766666348,268.099999905 L 321.766666348,272.199999809 L 311.566666349,272.199999809 L 311.566666349,268.099999905 L 299.033333079,268.099999905 L 299.033333079,272.199999809 L 288.833333079,272.199999809 L 288.833333079,268.099999905 L 276.199999809,268.099999905 " />
    <path
       id="path4792"
       inkscape:label="part"
       style="stroke:#000000;fill:none"
       d="M 276.199999809,268.099999905 L 276.199999809,260.699999824 L 280.299999714,260.699999824 L 280.299999714,250.899999824 L 276.199999809,250.899999824 L 276.199999809,239.299999839 L 280.299999714,239.299999839 L 280.299999714,229.499999838 L 276.199999809,229.499999838 L 276.199999809,217.899999854 L 280.299999714,217.899999854 L 280.299999714,208.099999853 L 276.199999809,208.099999853 L 276.199999809,196.499999868 L 280.299999714,196.499999868 L 280.299999714,186.699999868 L 276.199999809,186.699999868 L 276.199999809,175.099999883 L 280.299999714,175.099999883 L 280.299999714,165.299999882 L 276.199999809,165.299999882 L 276.199999809,153.699999898 L 280.299999714,153.699999898 L 280.299999714,143.899999897 L 276.199999809,143.899999897 L 276.199999809,132.299999912 L 280.299999714,132.299999912 L 280.299999714,122.499999912 L 276.199999809,122.499999912 L 276.199999809,110.899999927 L 280.299999714,110.899999927 L 280.299999714,101.099999926 L 276.199999809,101.099999926 L 276.199999809,89.4999999417 L 280.299999714,89.4999999417 L 280.299999714,79.6999999409 L 276.199999809,79.6999999409 L 276.199999809,68.0999999564 L 280.299999714,68.0999999564 L 280.299999714,58.2999999556 L 276.199999809,58.2999999556 L 276.199999809,46.699999971 L 280.299999714,46.699999971 L 280.299999714,36.8999999703 L 276.199999809,36.8999999703 L 276.199999809,25.2999999857 L 280.299999714,25.2999999857 L 280.299999714,15.499999985 L 276.199999809,15.499999985 L 276.199999809,8.09999990463 " />
  </g>
  <g
     id="g4795"
     inkscape:groupmode="layer"
     inkscape:label="newlayer" />
</svg>
